<svg width="1111" height="1079" viewBox="0 0 1111 1079" fill="none" xmlns="http://www.w3.org/2000/svg">
<ellipse cx="555.5" cy="528.5" rx="555.5" ry="528.5" fill="white"/>
<path d="M555 310.526C481.517 310.526 422 340.203 422 376.842V410H688V376.842C688 340.203 628.483 310.526 555 310.526ZM488.5 211.053C488.5 228.641 495.506 245.508 507.977 257.945C520.449 270.382 537.363 277.368 555 277.368C572.637 277.368 589.551 270.382 602.023 257.945C614.494 245.508 621.5 228.641 621.5 211.053H488.5ZM546.688 95C541.7 95 538.375 98.4816 538.375 103.289V153.026H521.75V111.579C521.75 111.579 484.344 125.837 484.344 173.75C484.344 173.75 471.875 176.071 471.875 194.474H638.125C637.294 176.071 625.656 173.75 625.656 173.75C625.656 125.837 588.25 111.579 588.25 111.579V153.026H571.625V103.289C571.625 98.4816 568.466 95 563.312 95H546.688Z" fill="#AADC59"/>
<path d="M282.753 486.736L273.085 521.659L264.835 521.679L258.227 496.844L251.435 521.71L243.235 521.779L233.753 486.851L241.253 486.834L247.467 513.919L254.503 486.803L262.303 486.784L269.066 513.719L275.203 486.754L282.753 486.736ZM313.122 507.115C313.124 508.115 313.059 509.016 312.928 509.816L292.678 509.863C292.849 511.863 293.553 513.428 294.789 514.558C296.025 515.689 297.543 516.252 299.343 516.248C301.943 516.242 303.79 515.121 304.885 512.885L312.435 512.867C311.641 515.536 310.113 517.739 307.851 519.478C305.588 521.183 302.807 522.04 299.507 522.047C296.84 522.054 294.439 521.476 292.302 520.314C290.2 519.119 288.546 517.44 287.341 515.276C286.169 513.112 285.58 510.613 285.573 507.78C285.566 504.913 286.144 502.395 287.305 500.226C288.467 498.056 290.096 496.386 292.194 495.214C294.291 494.043 296.706 493.454 299.44 493.447C302.073 493.441 304.424 494.002 306.494 495.131C308.596 496.259 310.217 497.872 311.355 499.97C312.526 502.034 313.115 504.415 313.122 507.115ZM305.867 505.132C305.829 503.333 305.176 501.901 303.907 500.837C302.638 499.74 301.086 499.194 299.253 499.198C297.52 499.202 296.054 499.739 294.857 500.808C293.693 501.844 292.979 503.296 292.717 505.163L305.867 505.132ZM328.346 507.58C328.34 504.78 328.884 502.295 329.979 500.126C331.107 497.957 332.62 496.286 334.517 495.115C336.448 493.944 338.596 493.356 340.963 493.35C343.03 493.345 344.831 493.758 346.366 494.588C347.934 495.417 349.187 496.464 350.123 497.729L350.114 493.779L357.164 493.762L357.229 521.462L350.179 521.479L350.169 517.429C349.272 518.731 348.025 519.817 346.427 520.688C344.862 521.525 343.047 521.945 340.98 521.95C338.647 521.956 336.512 521.361 334.576 520.165C332.673 518.97 331.152 517.29 330.014 515.126C328.909 512.929 328.353 510.413 328.346 507.58ZM350.146 507.629C350.142 505.929 349.806 504.48 349.136 503.281C348.467 502.049 347.564 501.118 346.43 500.488C345.295 499.824 344.077 499.493 342.777 499.496C341.477 499.499 340.278 499.819 339.18 500.454C338.081 501.09 337.183 502.026 336.486 503.261C335.822 504.462 335.492 505.896 335.496 507.563C335.5 509.23 335.837 510.696 336.506 511.961C337.209 513.192 338.112 514.14 339.213 514.804C340.348 515.468 341.549 515.799 342.815 515.796C344.115 515.793 345.331 515.473 346.463 514.837C347.595 514.168 348.493 513.233 349.157 512.031C349.82 510.796 350.15 509.329 350.146 507.629ZM371.011 498.03C371.907 496.561 373.071 495.408 374.503 494.572C375.967 493.735 377.633 493.314 379.5 493.31L379.517 500.66L377.667 500.664C375.467 500.67 373.801 501.19 372.67 502.226C371.573 503.262 371.027 505.063 371.033 507.63L371.065 521.43L364.065 521.446L364.001 493.746L371.001 493.73L371.011 498.03ZM409.996 506.889C409.999 507.889 409.934 508.789 409.803 509.589L389.553 509.637C389.724 511.636 390.428 513.201 391.664 514.332C392.9 515.462 394.418 516.025 396.218 516.021C398.818 516.015 400.665 514.894 401.76 512.658L409.31 512.64C408.516 515.309 406.988 517.513 404.725 519.251C402.463 520.956 399.681 521.813 396.381 521.821C393.715 521.827 391.313 521.249 389.177 520.088C387.074 518.892 385.42 517.213 384.215 515.049C383.044 512.885 382.454 510.387 382.448 507.553C382.441 504.687 383.019 502.169 384.18 499.999C385.342 497.83 386.971 496.159 389.068 494.988C391.166 493.816 393.581 493.227 396.314 493.221C398.948 493.215 401.299 493.776 403.368 494.904C405.471 496.033 407.091 497.646 408.23 499.743C409.401 501.807 409.99 504.189 409.996 506.889ZM402.742 504.906C402.704 503.106 402.051 501.674 400.782 500.61C399.512 499.513 397.961 498.967 396.128 498.971C394.394 498.975 392.929 499.512 391.732 500.582C390.567 501.618 389.854 503.069 389.592 504.937L402.742 504.906ZM425.221 507.453C425.214 504.586 425.792 502.085 426.954 499.949C428.115 497.78 429.728 496.109 431.792 494.938C433.856 493.733 436.221 493.127 438.888 493.121C442.321 493.113 445.156 493.973 447.394 495.701C449.664 497.396 451.187 499.792 451.961 502.891L444.411 502.908C444.008 501.709 443.322 500.777 442.354 500.113C441.419 499.415 440.252 499.068 438.852 499.071C436.852 499.076 435.27 499.813 434.107 501.282C432.943 502.718 432.365 504.77 432.371 507.436C432.377 510.07 432.965 512.118 434.136 513.582C435.306 515.013 436.891 515.726 438.891 515.721C441.724 515.715 443.571 514.444 444.432 511.908L451.982 511.891C451.222 514.892 449.711 517.279 447.448 519.051C445.186 520.823 442.355 521.713 438.955 521.721C436.288 521.727 433.92 521.15 431.851 519.988C429.781 518.793 428.16 517.13 426.989 514.999C425.817 512.835 425.228 510.32 425.221 507.453ZM483.217 493.467L483.282 521.167L476.232 521.184L476.223 517.684C475.326 518.886 474.145 519.839 472.68 520.542C471.248 521.212 469.682 521.549 467.982 521.553C465.816 521.558 463.898 521.113 462.229 520.217C460.56 519.287 459.241 517.94 458.27 516.176C457.332 514.378 456.861 512.246 456.855 509.779L456.817 493.529L463.817 493.513L463.852 508.763C463.858 510.963 464.412 512.661 465.514 513.859C466.617 515.023 468.118 515.603 470.018 515.598C471.952 515.594 473.467 515.007 474.564 513.838C475.662 512.635 476.208 510.934 476.202 508.734L476.167 493.484L483.217 493.467ZM497.133 497.735C498.03 496.266 499.194 495.113 500.625 494.277C502.09 493.44 503.756 493.019 505.622 493.015L505.64 500.365L503.79 500.369C501.59 500.374 499.924 500.895 498.793 501.931C497.696 502.967 497.15 504.768 497.156 507.335L497.188 521.135L490.188 521.151L490.123 493.451L497.123 493.435L497.133 497.735ZM517.348 497.688C518.245 496.219 519.409 495.066 520.84 494.229C522.305 493.393 523.97 492.972 525.837 492.968L525.854 500.318L524.004 500.322C521.804 500.327 520.139 500.848 519.008 501.884C517.91 502.92 517.365 504.721 517.371 507.288L517.403 521.087L510.403 521.104L510.338 493.404L517.338 493.388L517.348 497.688ZM556.334 506.546C556.336 507.546 556.272 508.446 556.14 509.247L535.89 509.294C536.062 511.294 536.765 512.859 538.001 513.989C539.237 515.12 540.755 515.683 542.555 515.679C545.155 515.673 547.003 514.552 548.097 512.316L555.647 512.298C554.854 514.966 553.325 517.17 551.063 518.909C548.8 520.614 546.019 521.471 542.719 521.478C540.052 521.484 537.651 520.907 535.515 519.745C533.412 518.55 531.758 516.871 530.553 514.707C529.381 512.543 528.792 510.044 528.785 507.211C528.779 504.344 529.356 501.826 530.518 499.657C531.679 497.487 533.309 495.817 535.406 494.645C537.503 493.474 539.918 492.885 542.652 492.878C545.285 492.872 547.636 493.433 549.706 494.562C551.808 495.69 553.429 497.303 554.567 499.4C555.739 501.464 556.328 503.846 556.334 506.546ZM549.079 504.563C549.042 502.763 548.388 501.332 547.119 500.268C545.85 499.171 544.299 498.624 542.465 498.629C540.732 498.633 539.267 499.17 538.069 500.239C536.905 501.275 536.192 502.727 535.929 504.594L549.079 504.563ZM576.761 492.848C580.061 492.841 582.73 493.885 584.769 495.98C586.807 498.042 587.83 500.939 587.839 504.673L587.877 520.923L580.877 520.939L580.841 505.639C580.836 503.439 580.282 501.757 579.179 500.593C578.077 499.395 576.575 498.799 574.675 498.803C572.742 498.808 571.21 499.412 570.079 500.614C568.982 501.783 568.436 503.468 568.441 505.668L568.477 520.968L561.477 520.984L561.412 493.284L568.412 493.268L568.42 496.718C569.351 495.516 570.532 494.58 571.964 493.91C573.429 493.206 575.028 492.853 576.761 492.848ZM602.632 498.938L602.664 512.338C602.666 513.271 602.884 513.954 603.318 514.386C603.786 514.785 604.553 514.984 605.62 514.981L608.87 514.973L608.884 520.873L604.484 520.884C598.584 520.898 595.627 518.038 595.613 512.304L595.582 498.954L592.282 498.962L592.269 493.212L595.569 493.204L595.553 486.355L602.603 486.338L602.619 493.188L608.819 493.173L608.832 498.923L602.632 498.938ZM620.832 483.845L620.918 520.845L613.918 520.862L613.832 483.862L620.832 483.845ZM654.269 493.067L637.215 533.907L629.765 533.925L635.733 520.111L624.569 493.137L632.419 493.118L639.615 512.451L646.819 493.085L654.269 493.067ZM676.966 497.064C677.863 495.729 679.094 494.642 680.659 493.805C682.257 492.968 684.072 492.547 686.106 492.543C688.472 492.537 690.607 493.115 692.51 494.278C694.446 495.44 695.966 497.103 697.071 499.267C698.21 501.398 698.782 503.88 698.789 506.713C698.796 509.546 698.235 512.064 697.107 514.267C696.012 516.436 694.499 518.123 692.568 519.328C690.671 520.532 688.539 521.137 686.173 521.143C684.106 521.147 682.288 520.752 680.72 519.955C679.185 519.126 677.949 518.062 677.012 516.764L677.022 520.714L670.022 520.73L669.935 483.73L676.935 483.714L676.966 497.064ZM691.639 506.73C691.635 505.063 691.282 503.631 690.579 502.432C689.909 501.2 689.007 500.269 687.872 499.639C686.771 499.008 685.57 498.694 684.27 498.697C683.003 498.7 681.804 499.036 680.672 499.705C679.574 500.341 678.676 501.277 677.979 502.512C677.315 503.747 676.985 505.197 676.989 506.864C676.993 508.531 677.33 509.98 677.999 511.212C678.702 512.443 679.604 513.391 680.706 514.055C681.841 514.686 683.042 515 684.308 514.997C685.608 514.994 686.807 514.658 687.906 513.988C689.038 513.319 689.935 512.367 690.599 511.132C691.296 509.897 691.643 508.43 691.639 506.73ZM729.993 492.89L730.058 520.59L723.008 520.606L723 517.106C722.103 518.308 720.922 519.261 719.457 519.965C718.025 520.635 716.459 520.972 714.759 520.976C712.592 520.981 710.675 520.535 709.006 519.639C707.337 518.71 706.017 517.363 705.046 515.598C704.109 513.801 703.637 511.668 703.631 509.202L703.593 492.952L710.593 492.935L710.629 508.185C710.634 510.385 711.188 512.084 712.291 513.281C713.394 514.445 714.895 515.025 716.795 515.021C718.728 515.016 720.244 514.429 721.341 513.26C722.438 512.058 722.984 510.356 722.979 508.156L722.943 492.906L729.993 492.89ZM740.442 489.565C739.209 489.568 738.175 489.187 737.34 488.423C736.538 487.625 736.135 486.642 736.133 485.476C736.13 484.309 736.528 483.341 737.326 482.573C738.157 481.771 739.19 481.368 740.423 481.365C741.656 481.363 742.674 481.76 743.476 482.558C744.311 483.323 744.73 484.289 744.733 485.455C744.735 486.622 744.321 487.606 743.49 488.408C742.691 489.177 741.676 489.563 740.442 489.565ZM743.9 492.857L743.965 520.557L736.965 520.574L736.9 492.874L743.9 492.857ZM757.794 483.525L757.881 520.525L750.881 520.541L750.794 483.541L757.794 483.525ZM762.964 506.563C762.958 503.763 763.502 501.278 764.597 499.109C765.725 496.94 767.254 495.269 769.185 494.098C771.116 492.927 773.264 492.339 775.631 492.333C777.431 492.329 779.148 492.725 780.784 493.521C782.419 494.284 783.721 495.314 784.691 496.612L784.66 483.462L791.76 483.445L791.847 520.445L784.747 520.462L784.737 516.362C783.874 517.731 782.66 518.833 781.095 519.67C779.53 520.507 777.714 520.928 775.648 520.933C773.314 520.939 771.18 520.344 769.244 519.148C767.307 517.953 765.77 516.273 764.632 514.109C763.527 511.912 762.971 509.396 762.964 506.563ZM784.764 506.612C784.76 504.912 784.424 503.463 783.754 502.264C783.085 501.032 782.182 500.101 781.048 499.47C779.913 498.806 778.695 498.476 777.395 498.479C776.095 498.482 774.896 498.802 773.797 499.437C772.699 500.073 771.801 501.009 771.104 502.244C770.44 503.445 770.11 504.879 770.114 506.546C770.118 508.213 770.455 509.679 771.124 510.944C771.827 512.175 772.73 513.123 773.831 513.787C774.966 514.451 776.167 514.782 777.433 514.779C778.733 514.776 779.949 514.456 781.081 513.82C782.213 513.151 783.111 512.216 783.775 511.014C784.438 509.779 784.768 508.312 784.764 506.612ZM802.161 489.421C800.928 489.424 799.893 489.043 799.058 488.278C798.256 487.48 797.854 486.498 797.851 485.331C797.849 484.164 798.246 483.197 799.044 482.428C799.876 481.626 800.908 481.224 802.142 481.221C803.375 481.218 804.393 481.616 805.194 482.414C806.03 483.179 806.449 484.144 806.451 485.311C806.454 486.478 806.04 487.462 805.208 488.264C804.41 489.032 803.394 489.418 802.161 489.421ZM805.619 492.713L805.683 520.413L798.683 520.429L798.619 492.729L805.619 492.713ZM827.884 492.261C831.184 492.253 833.853 493.297 835.891 495.392C837.929 497.454 838.953 500.352 838.961 504.085L838.999 520.335L831.999 520.351L831.964 505.051C831.958 502.851 831.404 501.169 830.302 500.005C829.199 498.808 827.698 498.211 825.798 498.216C823.864 498.22 822.332 498.824 821.202 500.027C820.104 501.196 819.558 502.88 819.564 505.08L819.599 520.38L812.599 520.397L812.535 492.697L819.535 492.68L819.543 496.13C820.473 494.928 821.654 493.992 823.086 493.322C824.551 492.619 826.15 492.265 827.884 492.261ZM856.44 492.144C858.507 492.139 860.324 492.552 861.893 493.381C863.461 494.178 864.697 495.225 865.6 496.523L865.591 492.573L872.641 492.556L872.706 520.456C872.712 523.023 872.201 525.307 871.172 527.31C870.144 529.345 868.598 530.949 866.534 532.121C864.47 533.325 861.971 533.931 859.038 533.938C855.105 533.947 851.869 533.038 849.331 531.211C846.827 529.383 845.405 526.887 845.064 523.721L852.014 523.704C852.383 524.97 853.169 525.968 854.371 526.699C855.606 527.463 857.09 527.843 858.824 527.839C860.857 527.834 862.505 527.213 863.769 525.977C865.033 524.774 865.662 522.939 865.656 520.473L865.646 516.173C864.749 517.475 863.502 518.561 861.904 519.431C860.339 520.302 858.54 520.739 856.507 520.744C854.174 520.749 852.039 520.154 850.103 518.959C848.167 517.763 846.629 516.084 845.491 513.92C844.386 511.722 843.83 509.207 843.823 506.374C843.817 503.574 844.361 501.089 845.456 498.92C846.584 496.75 848.097 495.08 849.994 493.909C851.925 492.738 854.073 492.15 856.44 492.144ZM865.623 506.423C865.619 504.723 865.283 503.273 864.613 502.075C863.944 500.843 863.042 499.912 861.907 499.281C860.772 498.617 859.554 498.287 858.254 498.29C856.954 498.293 855.755 498.612 854.657 499.248C853.558 499.884 852.66 500.82 851.963 502.055C851.299 503.256 850.969 504.69 850.973 506.357C850.977 508.024 851.314 509.489 851.984 510.755C852.686 511.986 853.589 512.934 854.69 513.598C855.825 514.262 857.026 514.593 858.293 514.59C859.593 514.587 860.808 514.267 861.94 513.631C863.072 512.962 863.97 512.026 864.634 510.825C865.298 509.59 865.627 508.123 865.623 506.423ZM154.673 574.986L149.823 574.998L149.875 596.948L142.775 596.964L142.723 575.014L139.573 575.022L139.56 569.272L142.71 569.264L142.707 567.864C142.699 564.464 143.66 561.962 145.589 560.358C147.519 558.753 150.434 557.996 154.334 558.087L154.348 563.987C152.648 563.958 151.465 564.244 150.8 564.845C150.134 565.447 149.804 566.531 149.807 568.098L149.81 569.248L154.66 569.236L154.673 574.986ZM185.346 569.165L185.411 596.865L178.361 596.881L178.353 593.381C177.456 594.583 176.275 595.536 174.809 596.239C173.378 596.909 171.812 597.246 170.112 597.25C167.945 597.255 166.027 596.81 164.359 595.914C162.69 594.984 161.37 593.637 160.399 591.873C159.462 590.075 158.99 587.943 158.984 585.476L158.946 569.226L165.946 569.21L165.982 584.46C165.987 586.66 166.541 588.359 167.644 589.556C168.747 590.72 170.248 591.3 172.148 591.296C174.081 591.291 175.597 590.704 176.694 589.535C177.791 588.332 178.337 586.631 178.332 584.431L178.296 569.181L185.346 569.165ZM207.602 568.713C210.902 568.705 213.571 569.749 215.609 571.844C217.647 573.906 218.671 576.803 218.68 580.537L218.718 596.787L211.718 596.803L211.682 581.503C211.677 579.303 211.123 577.621 210.02 576.457C208.917 575.26 207.416 574.663 205.516 574.667C203.582 574.672 202.05 575.276 200.92 576.478C199.823 577.647 199.277 579.332 199.282 581.532L199.318 596.832L192.318 596.848L192.253 569.148L199.253 569.132L199.261 572.582C200.191 571.38 201.373 570.444 202.804 569.774C204.269 569.07 205.868 568.717 207.602 568.713ZM223.542 582.925C223.535 580.059 224.113 577.557 225.274 575.421C226.436 573.252 228.049 571.581 230.112 570.41C232.176 569.205 234.542 568.6 237.208 568.593C240.642 568.585 243.477 569.445 245.714 571.173C247.985 572.868 249.507 575.265 250.281 578.363L242.731 578.38C242.328 577.181 241.643 576.25 240.675 575.585C239.74 574.887 238.572 574.54 237.172 574.543C235.172 574.548 233.591 575.285 232.427 576.754C231.264 578.191 230.685 580.242 230.692 582.909C230.698 585.542 231.286 587.591 232.456 589.054C233.626 590.485 235.211 591.198 237.211 591.193C240.044 591.187 241.891 589.916 242.752 587.38L250.302 587.363C249.543 590.364 248.031 592.751 245.769 594.523C243.506 596.295 240.675 597.185 237.275 597.193C234.609 597.199 232.24 596.622 230.171 595.46C228.102 594.265 226.481 592.602 225.309 590.471C224.138 588.307 223.548 585.792 223.542 582.925ZM263.551 574.732L263.582 588.132C263.584 589.065 263.803 589.748 264.237 590.18C264.705 590.579 265.472 590.777 266.538 590.775L269.788 590.767L269.802 596.667L265.402 596.677C259.502 596.691 256.545 593.831 256.532 588.098L256.501 574.748L253.201 574.756L253.187 569.006L256.487 568.998L256.471 562.148L263.521 562.132L263.537 568.982L269.737 568.967L269.751 574.717L263.551 574.732ZM278.314 565.647C277.081 565.65 276.047 565.269 275.212 564.504C274.41 563.706 274.007 562.724 274.005 561.557C274.002 560.39 274.4 559.423 275.198 558.654C276.029 557.852 277.062 557.45 278.295 557.447C279.528 557.444 280.546 557.842 281.348 558.64C282.183 559.405 282.602 560.37 282.605 561.537C282.607 562.704 282.193 563.688 281.362 564.49C280.563 565.258 279.548 565.644 278.314 565.647ZM281.772 568.939L281.837 596.639L274.837 596.655L274.772 568.955L281.772 568.939ZM301.054 597.044C298.387 597.05 295.986 596.472 293.85 595.311C291.714 594.116 290.026 592.436 288.788 590.273C287.583 588.109 286.977 585.61 286.97 582.777C286.964 579.944 287.575 577.442 288.803 575.273C290.065 573.103 291.777 571.432 293.941 570.261C296.105 569.055 298.52 568.45 301.187 568.444C303.854 568.437 306.272 569.032 308.441 570.227C310.611 571.388 312.314 573.051 313.553 575.215C314.825 577.378 315.464 579.877 315.47 582.71C315.477 585.544 314.833 588.045 313.538 590.215C312.276 592.384 310.547 594.072 308.35 595.277C306.186 596.449 303.754 597.038 301.054 597.044ZM301.04 590.944C302.306 590.941 303.489 590.638 304.588 590.036C305.719 589.4 306.617 588.464 307.281 587.229C307.945 585.994 308.275 584.494 308.27 582.727C308.264 580.094 307.56 578.079 306.156 576.682C304.786 575.252 303.101 574.539 301.101 574.544C299.101 574.548 297.42 575.269 296.056 576.706C294.726 578.109 294.064 580.127 294.07 582.76C294.077 585.394 294.731 587.425 296.035 588.856C297.371 590.253 299.04 590.949 301.04 590.944ZM335.922 568.412C339.222 568.405 341.891 569.448 343.929 571.544C345.967 573.605 346.991 576.503 346.999 580.236L347.037 596.486L340.038 596.503L340.002 581.203C339.997 579.003 339.443 577.321 338.34 576.157C337.237 574.959 335.736 574.363 333.836 574.367C331.902 574.372 330.37 574.975 329.24 576.178C328.143 577.347 327.597 579.032 327.602 581.232L327.638 596.532L320.638 596.548L320.573 568.848L327.573 568.832L327.581 572.282C328.511 571.08 329.692 570.144 331.124 569.474C332.589 568.77 334.188 568.416 335.922 568.412ZM351.861 582.525C351.855 579.725 352.399 577.24 353.494 575.071C354.622 572.902 356.135 571.232 358.032 570.061C359.963 568.889 362.112 568.301 364.478 568.295C366.545 568.291 368.346 568.703 369.881 569.533C371.45 570.362 372.702 571.41 373.638 572.674L373.629 568.724L380.679 568.708L380.744 596.407L373.694 596.424L373.685 592.374C372.788 593.676 371.54 594.762 369.942 595.633C368.377 596.47 366.562 596.891 364.495 596.896C362.162 596.901 360.027 596.306 358.091 595.11C356.188 593.915 354.668 592.235 353.529 590.071C352.424 587.874 351.868 585.358 351.861 582.525ZM373.662 582.574C373.658 580.874 373.321 579.425 372.651 578.226C371.982 576.995 371.08 576.063 369.945 575.433C368.81 574.769 367.593 574.438 366.293 574.441C364.993 574.444 363.793 574.764 362.695 575.4C361.596 576.036 360.698 576.971 360.001 578.206C359.338 579.408 359.008 580.842 359.011 582.508C359.015 584.175 359.352 585.641 360.022 586.906C360.725 588.138 361.627 589.086 362.728 589.75C363.863 590.414 365.064 590.744 366.331 590.741C367.631 590.738 368.847 590.419 369.979 589.783C371.11 589.113 372.008 588.178 372.672 586.976C373.336 585.741 373.666 584.274 373.662 582.574ZM394.494 559.375L394.581 596.375L387.581 596.391L387.494 559.392L394.494 559.375ZM404.974 565.351C403.741 565.354 402.707 564.973 401.871 564.208C401.07 563.41 400.667 562.427 400.665 561.261C400.662 560.094 401.06 559.127 401.858 558.358C402.689 557.556 403.722 557.154 404.955 557.151C406.188 557.148 407.206 557.545 408.008 558.344C408.843 559.108 409.262 560.074 409.265 561.241C409.267 562.407 408.853 563.392 408.021 564.194C407.223 564.962 406.207 565.348 404.974 565.351ZM408.432 568.643L408.497 596.343L401.497 596.359L401.432 568.659L408.432 568.643ZM423.511 574.357L423.543 587.757C423.545 588.691 423.763 589.373 424.197 589.806C424.665 590.205 425.432 590.403 426.499 590.4L429.749 590.393L429.763 596.293L425.363 596.303C419.463 596.317 416.506 593.457 416.493 587.724L416.461 574.374L413.161 574.382L413.148 568.632L416.448 568.624L416.432 561.774L423.482 561.757L423.498 568.607L429.698 568.593L429.711 574.343L423.511 574.357ZM461.233 568.519L444.178 609.359L436.728 609.377L442.696 595.563L431.533 568.589L439.383 568.57L446.578 587.903L453.783 568.536L461.233 568.519ZM485.083 574.213L485.115 587.613C485.117 588.547 485.335 589.229 485.77 589.662C486.237 590.061 487.004 590.259 488.071 590.256L491.321 590.249L491.335 596.149L486.935 596.159C481.035 596.173 478.078 593.313 478.065 587.58L478.033 574.23L474.733 574.237L474.72 568.487L478.02 568.48L478.004 561.63L485.054 561.613L485.07 568.463L491.27 568.449L491.283 574.199L485.083 574.213ZM511.904 568C514.004 567.996 515.871 568.458 517.507 569.387C519.142 570.284 520.412 571.631 521.316 573.428C522.254 575.193 522.726 577.325 522.731 579.825L522.769 596.075L515.769 596.092L515.734 580.792C515.728 578.592 515.175 576.91 514.072 575.745C512.969 574.548 511.468 573.952 509.568 573.956C507.634 573.96 506.102 574.564 504.972 575.767C503.875 576.936 503.329 578.621 503.334 580.821L503.369 596.121L496.37 596.137L496.283 559.137L503.283 559.121L503.313 571.871C504.21 570.668 505.408 569.732 506.906 569.062C508.405 568.359 510.07 568.005 511.904 568ZM527.593 582.114C527.587 579.314 528.131 576.829 529.226 574.66C530.354 572.491 531.867 570.82 533.764 569.649C535.695 568.478 537.843 567.89 540.21 567.884C542.277 567.879 544.078 568.292 545.613 569.122C547.182 569.951 548.434 570.998 549.37 572.263L549.361 568.313L556.411 568.296L556.476 595.996L549.426 596.013L549.417 591.963C548.52 593.265 547.272 594.351 545.674 595.222C544.109 596.059 542.294 596.479 540.227 596.484C537.894 596.49 535.759 595.895 533.823 594.699C531.92 593.504 530.399 591.824 529.261 589.66C528.156 587.462 527.6 584.947 527.593 582.114ZM549.394 582.163C549.39 580.463 549.053 579.014 548.383 577.815C547.714 576.583 546.812 575.652 545.677 575.021C544.542 574.357 543.325 574.027 542.025 574.03C540.725 574.033 539.525 574.353 538.427 574.988C537.328 575.624 536.43 576.56 535.733 577.795C535.069 578.996 534.739 580.43 534.743 582.097C534.747 583.764 535.084 585.23 535.754 586.495C536.457 587.726 537.359 588.674 538.46 589.338C539.595 590.002 540.796 590.333 542.063 590.33C543.363 590.327 544.579 590.007 545.71 589.371C546.842 588.702 547.74 587.767 548.404 586.565C549.068 585.33 549.398 583.863 549.394 582.163ZM571.411 574.011L571.443 587.411C571.445 588.345 571.663 589.027 572.097 589.46C572.565 589.859 573.332 590.057 574.399 590.054L577.649 590.047L577.663 595.947L573.263 595.957C567.363 595.971 564.406 593.111 564.393 587.378L564.361 574.028L561.061 574.035L561.048 568.285L564.348 568.278L564.332 561.428L571.382 561.411L571.398 568.261L577.598 568.247L577.611 573.997L571.411 574.011ZM632.946 568.117L624.911 595.836L617.361 595.854L612.266 576.516L607.261 595.877L599.661 595.895L591.447 568.214L598.547 568.198L603.496 589.286L608.747 568.174L616.147 568.157L621.396 589.194L626.247 568.133L632.946 568.117ZM640.276 564.8C639.043 564.803 638.009 564.422 637.174 563.657C636.372 562.859 635.969 561.877 635.967 560.71C635.964 559.543 636.362 558.576 637.16 557.807C637.991 557.005 639.024 556.603 640.257 556.6C641.49 556.597 642.508 556.995 643.31 557.793C644.145 558.558 644.564 559.523 644.567 560.69C644.569 561.857 644.155 562.841 643.324 563.643C642.525 564.411 641.51 564.797 640.276 564.8ZM643.734 568.092L643.799 595.792L636.799 595.808L636.734 568.108L643.734 568.092ZM657.628 558.759L657.715 595.759L650.715 595.776L650.628 558.776L657.628 558.759ZM671.544 558.727L671.631 595.727L664.631 595.743L664.544 558.743L671.544 558.727ZM716.177 581.172C716.179 582.172 716.115 583.073 715.983 583.873L695.733 583.92C695.905 585.92 696.608 587.485 697.844 588.615C699.08 589.746 700.598 590.309 702.398 590.305C704.998 590.299 706.846 589.178 707.94 586.942L715.49 586.924C714.697 589.593 713.168 591.796 710.906 593.535C708.643 595.24 705.862 596.097 702.562 596.104C699.895 596.111 697.494 595.533 695.358 594.371C693.255 593.176 691.601 591.497 690.396 589.333C689.224 587.169 688.635 584.67 688.628 581.837C688.622 578.97 689.199 576.452 690.361 574.283C691.522 572.113 693.152 570.443 695.249 569.271C697.346 568.1 699.762 567.511 702.495 567.504C705.128 567.498 707.48 568.059 709.549 569.188C711.651 570.316 713.272 571.929 714.41 574.027C715.582 576.091 716.171 578.473 716.177 581.172ZM708.922 579.189C708.885 577.39 708.231 575.958 706.962 574.894C705.693 573.797 704.142 573.251 702.308 573.255C700.575 573.259 699.11 573.796 697.912 574.865C696.748 575.901 696.035 577.353 695.772 579.22L708.922 579.189ZM736.604 567.475C739.904 567.467 742.573 568.511 744.612 570.606C746.65 572.668 747.673 575.565 747.682 579.299L747.72 595.549L740.72 595.565L740.684 580.265C740.679 578.065 740.125 576.383 739.022 575.219C737.92 574.022 736.418 573.425 734.518 573.43C732.585 573.434 731.053 574.038 729.922 575.24C728.825 576.41 728.279 578.094 728.284 580.294L728.32 595.594L721.32 595.611L721.255 567.911L728.255 567.894L728.263 571.344C729.194 570.142 730.375 569.206 731.807 568.536C733.272 567.832 734.871 567.479 736.604 567.475ZM752.544 581.587C752.537 578.787 753.082 576.303 754.177 574.134C755.305 571.964 756.818 570.294 758.715 569.123C760.645 567.952 762.794 567.363 765.161 567.358C767.227 567.353 769.028 567.765 770.564 568.595C772.132 569.425 773.385 570.472 774.321 571.736L774.312 567.786L781.362 567.77L781.427 595.47L774.377 595.486L774.367 591.436C773.47 592.738 772.223 593.825 770.625 594.695C769.06 595.532 767.244 595.953 765.178 595.958C762.844 595.963 760.71 595.368 758.773 594.173C756.871 592.977 755.35 591.298 754.212 589.134C753.106 586.936 752.551 584.421 752.544 581.587ZM774.344 581.636C774.34 579.936 774.003 578.487 773.334 577.289C772.664 576.057 771.762 575.126 770.627 574.495C769.493 573.831 768.275 573.501 766.975 573.504C765.675 573.507 764.476 573.826 763.377 574.462C762.279 575.098 761.381 576.033 760.684 577.268C760.02 578.47 759.69 579.904 759.694 581.571C759.698 583.237 760.035 584.703 760.704 585.968C761.407 587.2 762.309 588.148 763.411 588.812C764.546 589.476 765.747 589.807 767.013 589.804C768.313 589.801 769.529 589.481 770.661 588.845C771.793 588.176 772.691 587.24 773.354 586.039C774.018 584.804 774.348 583.336 774.344 581.636ZM795.208 571.788C796.105 570.452 797.336 569.366 798.9 568.529C800.498 567.692 802.314 567.271 804.347 567.266C806.714 567.261 808.849 567.839 810.751 569.001C812.687 570.163 814.208 571.826 815.313 573.99C816.451 576.121 817.024 578.603 817.031 581.436C817.037 584.27 816.476 586.788 815.348 588.99C814.253 591.16 812.741 592.847 810.81 594.051C808.913 595.256 806.781 595.861 804.414 595.866C802.348 595.871 800.53 595.475 798.961 594.679C797.426 593.849 796.19 592.785 795.254 591.487L795.263 595.437L788.263 595.454L788.177 558.454L795.177 558.438L795.208 571.788ZM809.881 581.453C809.877 579.787 809.523 578.354 808.82 577.156C808.151 575.924 807.249 574.993 806.114 574.362C805.012 573.731 803.812 573.417 802.512 573.42C801.245 573.423 800.046 573.76 798.914 574.429C797.816 575.065 796.918 576 796.221 577.235C795.557 578.47 795.227 579.921 795.231 581.588C795.235 583.254 795.571 584.703 796.241 585.935C796.944 587.167 797.846 588.115 798.948 588.779C800.082 589.41 801.283 589.723 802.55 589.72C803.85 589.717 805.049 589.381 806.148 588.712C807.279 588.043 808.177 587.091 808.841 585.856C809.538 584.621 809.885 583.153 809.881 581.453ZM829.063 558.358L829.15 595.358L822.15 595.375L822.063 558.375L829.063 558.358ZM861.782 580.832C861.784 581.832 861.72 582.732 861.588 583.532L841.338 583.58C841.51 585.579 842.213 587.144 843.449 588.275C844.685 589.405 846.203 589.968 848.003 589.964C850.603 589.958 852.451 588.837 853.545 586.601L861.095 586.583C860.302 589.252 858.773 591.456 856.511 593.194C854.248 594.899 851.467 595.756 848.167 595.764C845.5 595.77 843.099 595.192 840.963 594.031C838.86 592.835 837.206 591.156 836.001 588.992C834.829 586.828 834.24 584.33 834.233 581.496C834.227 578.63 834.804 576.112 835.966 573.942C837.127 571.773 838.757 570.102 840.854 568.931C842.951 567.759 845.367 567.17 848.1 567.164C850.733 567.158 853.085 567.719 855.154 568.847C857.257 569.976 858.877 571.589 860.015 573.686C861.187 575.75 861.776 578.132 861.782 580.832ZM854.527 578.849C854.49 577.049 853.836 575.617 852.567 574.553C851.298 573.456 849.747 572.91 847.913 572.914C846.18 572.918 844.715 573.455 843.517 574.524C842.353 575.561 841.64 577.012 841.377 578.88L854.527 578.849ZM905.274 567.48L888.22 608.32L880.77 608.337L886.737 594.523L875.574 567.549L883.424 567.531L890.62 586.864L897.824 567.497L905.274 567.48ZM921.414 595.592C918.747 595.599 916.346 595.021 914.209 593.859C912.073 592.664 910.386 590.985 909.148 588.821C907.943 586.657 907.337 584.159 907.33 581.325C907.323 578.492 907.934 575.99 909.163 573.821C910.424 571.651 912.137 569.981 914.301 568.809C916.465 567.604 918.88 566.998 921.547 566.992C924.213 566.986 926.631 567.58 928.801 568.775C930.97 569.936 932.674 571.599 933.912 573.763C935.184 575.927 935.823 578.425 935.83 581.258C935.837 584.092 935.193 586.593 933.898 588.763C932.636 590.933 930.907 592.62 928.709 593.825C926.545 594.997 924.114 595.586 921.414 595.592ZM921.399 589.492C922.666 589.489 923.849 589.187 924.947 588.584C926.079 587.948 926.977 587.013 927.641 585.778C928.304 584.543 928.634 583.042 928.63 581.275C928.624 578.642 927.919 576.627 926.516 575.23C925.146 573.8 923.461 573.087 921.461 573.092C919.461 573.097 917.779 573.817 916.416 575.254C915.086 576.657 914.424 578.675 914.43 581.309C914.436 583.942 915.091 585.974 916.394 587.404C917.731 588.801 919.399 589.497 921.399 589.492ZM967.082 567.335L967.147 595.035L960.097 595.052L960.089 591.552C959.192 592.754 958.011 593.707 956.546 594.41C955.114 595.08 953.548 595.417 951.848 595.421C949.681 595.426 947.764 594.981 946.095 594.085C944.426 593.155 943.106 591.808 942.135 590.044C941.198 588.246 940.726 586.114 940.72 583.647L940.682 567.397L947.682 567.381L947.718 582.631C947.723 584.831 948.277 586.529 949.38 587.727C950.483 588.891 951.984 589.471 953.884 589.466C955.817 589.462 957.333 588.875 958.43 587.706C959.527 586.503 960.073 584.802 960.068 582.602L960.032 567.352L967.082 567.335ZM153.717 649.989L153.748 663.389C153.75 664.322 153.969 665.005 154.403 665.437C154.871 665.836 155.638 666.034 156.704 666.032L159.954 666.024L159.968 671.924L155.568 671.935C149.668 671.948 146.712 669.089 146.698 663.355L146.667 650.005L143.367 650.013L143.353 644.263L146.653 644.255L146.637 637.405L153.687 637.389L153.703 644.239L159.903 644.224L159.917 649.974L153.717 649.989ZM177.304 672.334C174.637 672.34 172.236 671.762 170.1 670.601C167.964 669.406 166.276 667.726 165.038 665.562C163.833 663.399 163.227 660.9 163.221 658.067C163.214 655.233 163.825 652.732 165.053 650.562C166.315 648.393 168.027 646.722 170.191 645.55C172.355 644.345 174.77 643.74 177.437 643.733C180.104 643.727 182.522 644.321 184.691 645.516C186.861 646.678 188.565 648.341 189.803 650.504C191.075 652.668 191.714 655.167 191.72 658C191.727 660.833 191.083 663.335 189.788 665.505C188.526 667.674 186.797 669.362 184.6 670.567C182.436 671.738 180.004 672.327 177.304 672.334ZM177.29 666.234C178.556 666.231 179.739 665.928 180.838 665.325C181.969 664.689 182.867 663.754 183.531 662.519C184.195 661.284 184.525 659.783 184.52 658.017C184.514 655.384 183.81 653.368 182.406 651.972C181.036 650.542 179.351 649.829 177.351 649.834C175.351 649.838 173.67 650.559 172.306 651.995C170.976 653.399 170.314 655.417 170.321 658.05C170.327 660.683 170.981 662.715 172.285 664.145C173.621 665.542 175.29 666.238 177.29 666.234ZM206.969 657.964C206.963 655.098 207.54 652.596 208.702 650.46C209.863 648.291 211.476 646.62 213.54 645.449C215.604 644.244 217.969 643.639 220.636 643.632C224.069 643.624 226.904 644.484 229.142 646.212C231.412 647.907 232.935 650.304 233.709 653.402L226.159 653.419C225.756 652.22 225.07 651.289 224.102 650.624C223.167 649.926 222 649.579 220.6 649.582C218.6 649.587 217.018 650.324 215.855 651.793C214.692 653.23 214.113 655.281 214.119 657.948C214.125 660.581 214.714 662.63 215.884 664.093C217.054 665.524 218.639 666.237 220.639 666.232C223.472 666.226 225.319 664.955 226.18 662.419L233.73 662.402C232.97 665.403 231.459 667.79 229.196 669.562C226.934 671.334 224.103 672.224 220.703 672.232C218.036 672.238 215.668 671.661 213.599 670.499C211.529 669.304 209.909 667.641 208.737 665.51C207.565 663.346 206.976 660.831 206.969 657.964ZM245.825 648.323C246.721 646.855 247.885 645.702 249.317 644.865C250.782 644.028 252.447 643.608 254.314 643.603L254.331 650.953L252.481 650.958C250.281 650.963 248.616 651.483 247.485 652.519C246.387 653.555 245.841 655.357 245.847 657.923L245.88 671.723L238.88 671.74L238.815 644.04L245.815 644.023L245.825 648.323ZM284.811 657.182C284.813 658.182 284.748 659.082 284.617 659.883L264.367 659.93C264.538 661.93 265.242 663.495 266.478 664.625C267.714 665.756 269.232 666.319 271.032 666.314C273.632 666.308 275.479 665.187 276.574 662.951L284.124 662.934C283.33 665.602 281.802 667.806 279.54 669.545C277.277 671.25 274.495 672.106 271.196 672.114C268.529 672.12 266.127 671.543 263.991 670.381C261.889 669.186 260.235 667.506 259.03 665.342C257.858 663.179 257.269 660.68 257.262 657.847C257.255 654.98 257.833 652.462 258.994 650.293C260.156 648.123 261.785 646.453 263.883 645.281C265.98 644.11 268.395 643.521 271.129 643.514C273.762 643.508 276.113 644.069 278.183 645.198C280.285 646.326 281.906 647.939 283.044 650.036C284.215 652.1 284.804 654.482 284.811 657.182ZM277.556 655.199C277.518 653.399 276.865 651.967 275.596 650.904C274.327 649.807 272.775 649.26 270.942 649.265C269.209 649.269 267.743 649.805 266.546 650.875C265.382 651.911 264.668 653.363 264.406 655.23L277.556 655.199ZM288.121 657.674C288.115 654.874 288.659 652.39 289.754 650.221C290.882 648.051 292.395 646.381 294.292 645.21C296.223 644.039 298.371 643.45 300.738 643.445C302.805 643.44 304.606 643.852 306.141 644.682C307.709 645.512 308.962 646.559 309.898 647.823L309.889 643.873L316.939 643.857L317.004 671.557L309.954 671.573L309.944 667.523C309.047 668.825 307.8 669.912 306.202 670.782C304.637 671.619 302.821 672.04 300.755 672.045C298.421 672.05 296.287 671.455 294.351 670.26C292.448 669.064 290.927 667.385 289.789 665.221C288.684 663.023 288.128 660.508 288.121 657.674ZM309.921 657.723C309.917 656.023 309.581 654.574 308.911 653.376C308.242 652.144 307.339 651.213 306.205 650.582C305.07 649.918 303.852 649.588 302.552 649.591C301.252 649.594 300.053 649.913 298.954 650.549C297.856 651.185 296.958 652.12 296.261 653.355C295.597 654.557 295.267 655.991 295.271 657.658C295.275 659.324 295.612 660.79 296.281 662.055C296.984 663.287 297.887 664.235 298.988 664.899C300.123 665.563 301.324 665.894 302.59 665.891C303.89 665.888 305.106 665.568 306.238 664.932C307.37 664.263 308.268 663.327 308.932 662.126C309.595 660.891 309.925 659.423 309.921 657.723ZM331.939 649.572L331.97 662.972C331.973 663.905 332.191 664.588 332.625 665.02C333.093 665.419 333.86 665.617 334.927 665.615L338.177 665.607L338.19 671.507L333.79 671.518C327.89 671.531 324.934 668.672 324.92 662.938L324.889 649.588L321.589 649.596L321.576 643.846L324.876 643.838L324.86 636.988L331.91 636.972L331.926 643.822L338.126 643.807L338.139 649.557L331.939 649.572ZM368.941 656.985C368.944 657.985 368.879 658.885 368.748 659.686L348.498 659.733C348.669 661.733 349.373 663.298 350.609 664.428C351.845 665.559 353.363 666.122 355.163 666.118C357.763 666.111 359.61 664.99 360.705 662.755L368.255 662.737C367.461 665.405 365.933 667.609 363.67 669.348C361.407 671.053 358.626 671.909 355.326 671.917C352.659 671.923 350.258 671.346 348.122 670.184C346.019 668.989 344.365 667.309 343.16 665.146C341.989 662.982 341.399 660.483 341.393 657.65C341.386 654.783 341.963 652.265 343.125 650.096C344.287 647.926 345.916 646.256 348.013 645.084C350.111 643.913 352.526 643.324 355.259 643.317C357.893 643.311 360.244 643.872 362.313 645.001C364.416 646.129 366.036 647.742 367.175 649.839C368.346 651.903 368.935 654.285 368.941 656.985ZM361.687 655.002C361.649 653.202 360.996 651.771 359.727 650.707C358.457 649.61 356.906 649.063 355.073 649.068C353.339 649.072 351.874 649.609 350.676 650.678C349.512 651.714 348.799 653.166 348.537 655.033L361.687 655.002ZM412.434 643.633L395.379 684.473L387.929 684.491L393.897 670.677L382.734 643.703L390.584 643.685L397.779 663.018L404.984 643.651L412.434 643.633ZM428.573 671.746C425.906 671.752 423.505 671.174 421.369 670.013C419.233 668.818 417.545 667.138 416.307 664.974C415.102 662.811 414.496 660.312 414.489 657.479C414.483 654.645 415.094 652.144 416.322 649.974C417.583 647.805 419.296 646.134 421.46 644.962C423.624 643.757 426.039 643.152 428.706 643.145C431.373 643.139 433.791 643.733 435.96 644.928C438.129 646.09 439.833 647.753 441.072 649.916C442.343 652.08 442.983 654.579 442.989 657.412C442.996 660.245 442.352 662.747 441.057 664.917C439.795 667.086 438.066 668.774 435.869 669.979C433.705 671.15 431.273 671.739 428.573 671.746ZM428.559 665.646C429.825 665.643 431.008 665.34 432.106 664.737C433.238 664.101 434.136 663.166 434.8 661.931C435.464 660.696 435.793 659.195 435.789 657.429C435.783 654.796 435.078 652.78 433.675 651.384C432.305 649.954 430.62 649.241 428.62 649.246C426.62 649.25 424.939 649.971 423.575 651.407C422.245 652.811 421.583 654.829 421.589 657.462C421.596 660.095 422.25 662.127 423.554 663.557C424.89 664.954 426.559 665.65 428.559 665.646ZM474.242 643.489L474.306 671.189L467.256 671.205L467.248 667.705C466.351 668.907 465.17 669.86 463.705 670.564C462.273 671.234 460.707 671.571 459.007 671.575C456.841 671.58 454.923 671.134 453.254 670.238C451.585 669.309 450.265 667.962 449.295 666.197C448.357 664.399 447.885 662.267 447.88 659.801L447.842 643.551L454.842 643.534L454.877 658.784C454.882 660.984 455.436 662.683 456.539 663.88C457.642 665.044 459.143 665.624 461.043 665.62C462.977 665.615 464.492 665.028 465.589 663.859C466.686 662.657 467.232 660.955 467.227 658.755L467.192 643.505L474.242 643.489ZM488.158 647.756C489.055 646.287 490.219 645.135 491.65 644.298C493.115 643.461 494.781 643.041 496.647 643.036L496.664 650.386L494.814 650.391C492.614 650.396 490.949 650.916 489.818 651.952C488.72 652.988 488.175 654.79 488.181 657.356L488.213 671.156L481.213 671.173L481.148 643.473L488.148 643.456L488.158 647.756ZM525.643 671.519C522.976 671.525 520.575 670.947 518.439 669.785C516.303 668.59 514.615 666.911 513.377 664.747C512.172 662.583 511.566 660.085 511.559 657.252C511.553 654.418 512.164 651.917 513.392 649.747C514.653 647.578 516.366 645.907 518.53 644.735C520.694 643.53 523.109 642.924 525.776 642.918C528.443 642.912 530.861 643.506 533.03 644.701C535.2 645.863 536.903 647.526 538.142 649.689C539.414 651.853 540.053 654.352 540.059 657.185C540.066 660.018 539.422 662.52 538.127 664.689C536.865 666.859 535.136 668.546 532.939 669.752C530.775 670.923 528.343 671.512 525.643 671.519ZM525.629 665.419C526.895 665.416 528.078 665.113 529.176 664.51C530.308 663.874 531.206 662.939 531.87 661.704C532.534 660.469 532.864 658.968 532.859 657.202C532.853 654.568 532.148 652.553 530.745 651.157C529.375 649.726 527.69 649.014 525.69 649.018C523.69 649.023 522.009 649.744 520.645 651.18C519.315 652.583 518.653 654.602 518.659 657.235C518.666 659.868 519.32 661.9 520.624 663.33C521.96 664.727 523.629 665.423 525.629 665.419ZM583.562 643.233L575.526 670.952L567.976 670.97L562.881 651.631L557.876 670.993L550.277 671.011L542.062 643.33L549.162 643.313L554.111 664.402L559.362 643.29L566.762 643.272L572.011 664.31L576.862 643.249L583.562 643.233ZM602.698 642.788C605.998 642.78 608.667 643.824 610.705 645.919C612.744 647.981 613.767 650.879 613.776 654.612L613.814 670.862L606.814 670.879L606.778 655.579C606.773 653.379 606.219 651.697 605.116 650.533C604.013 649.335 602.512 648.739 600.612 648.743C598.679 648.748 597.147 649.351 596.016 650.554C594.919 651.723 594.373 653.408 594.378 655.608L594.414 670.908L587.414 670.924L587.349 643.224L594.349 643.208L594.357 646.658C595.288 645.456 596.469 644.519 597.901 643.849C599.366 643.146 600.965 642.792 602.698 642.788ZM658.101 656.309C658.103 657.309 658.038 658.209 657.907 659.009L637.657 659.056C637.828 661.056 638.532 662.621 639.768 663.752C641.004 664.882 642.522 665.445 644.322 665.441C646.922 665.435 648.769 664.314 649.864 662.078L657.414 662.06C656.62 664.729 655.092 666.932 652.83 668.671C650.567 670.376 647.785 671.233 644.485 671.241C641.819 671.247 639.417 670.669 637.281 669.507C635.179 668.312 633.525 666.633 632.32 664.469C631.148 662.305 630.559 659.806 630.552 656.973C630.545 654.106 631.123 651.588 632.284 649.419C633.446 647.25 635.075 645.579 637.173 644.408C639.27 643.236 641.685 642.647 644.419 642.641C647.052 642.634 649.403 643.196 651.473 644.324C653.575 645.452 655.196 647.065 656.334 649.163C657.505 651.227 658.094 653.609 658.101 656.309ZM650.846 654.326C650.808 652.526 650.155 651.094 648.886 650.03C647.617 648.933 646.065 648.387 644.232 648.391C642.499 648.395 641.033 648.932 639.836 650.001C638.672 651.037 637.958 652.489 637.696 654.356L650.846 654.326ZM674.779 664.27L681.729 643.003L689.179 642.986L678.994 670.71L670.494 670.73L660.229 643.054L667.729 643.036L674.779 664.27ZM718.891 656.166C718.894 657.166 718.829 658.066 718.698 658.867L698.448 658.914C698.619 660.914 699.323 662.479 700.559 663.609C701.795 664.74 703.313 665.303 705.113 665.299C707.713 665.293 709.56 664.172 710.655 661.936L718.205 661.918C717.411 664.587 715.883 666.79 713.62 668.529C711.358 670.234 708.576 671.091 705.276 671.098C702.61 671.104 700.208 670.527 698.072 669.365C695.969 668.17 694.316 666.491 693.11 664.327C691.939 662.163 691.35 659.664 691.343 656.831C691.336 653.964 691.914 651.446 693.075 649.277C694.237 647.107 695.866 645.437 697.964 644.265C700.061 643.094 702.476 642.505 705.209 642.498C707.843 642.492 710.194 643.053 712.263 644.182C714.366 645.31 715.986 646.923 717.125 649.02C718.296 651.084 718.885 653.466 718.891 656.166ZM711.637 654.183C711.599 652.383 710.946 650.952 709.677 649.888C708.407 648.791 706.856 648.244 705.023 648.249C703.29 648.253 701.824 648.79 700.627 649.859C699.462 650.895 698.749 652.347 698.487 654.214L711.637 654.183ZM739.319 642.469C742.619 642.461 745.288 643.505 747.326 645.6C749.364 647.662 750.388 650.559 750.397 654.293L750.435 670.543L743.435 670.559L743.399 655.259C743.394 653.059 742.84 651.377 741.737 650.213C740.634 649.015 739.133 648.419 737.233 648.423C735.299 648.428 733.767 649.032 732.637 650.234C731.54 651.403 730.994 653.088 730.999 655.288L731.035 670.588L724.035 670.604L723.97 642.904L730.97 642.888L730.978 646.338C731.908 645.136 733.09 644.2 734.521 643.53C735.986 642.826 737.585 642.473 739.319 642.469ZM765.19 648.558L765.221 661.958C765.223 662.891 765.442 663.574 765.876 664.006C766.344 664.405 767.111 664.604 768.177 664.601L771.427 664.593L771.441 670.493L767.041 670.504C761.141 670.518 758.184 667.658 758.171 661.924L758.14 648.574L754.84 648.582L754.826 642.832L758.126 642.824L758.11 635.975L765.16 635.958L765.176 642.808L771.376 642.793L771.39 648.543L765.19 648.558ZM787.077 670.907C784.81 670.912 782.776 670.517 780.974 669.721C779.172 668.892 777.736 667.779 776.666 666.381C775.63 664.984 775.059 663.435 774.955 661.735L782.005 661.719C782.141 662.785 782.66 663.667 783.562 664.365C784.497 665.063 785.647 665.41 787.014 665.407C788.347 665.404 789.38 665.135 790.112 664.6C790.878 664.065 791.259 663.38 791.257 662.547C791.255 661.647 790.787 660.981 789.853 660.55C788.952 660.086 787.5 659.589 785.499 659.06C783.431 658.565 781.73 658.053 780.396 657.522C779.094 656.992 777.959 656.178 776.99 655.08C776.054 653.983 775.584 652.5 775.579 650.634C775.576 649.1 776.006 647.699 776.87 646.431C777.767 645.162 779.031 644.159 780.663 643.422C782.328 642.685 784.277 642.313 786.51 642.308C789.81 642.3 792.445 643.128 794.416 644.79C796.386 646.418 797.475 648.632 797.681 651.432L790.981 651.448C790.879 650.348 790.41 649.482 789.575 648.851C788.774 648.186 787.69 647.855 786.323 647.859C785.056 647.861 784.074 648.097 783.375 648.565C782.709 649.034 782.377 649.684 782.379 650.518C782.381 651.451 782.85 652.167 783.784 652.664C784.719 653.129 786.17 653.609 788.138 654.104C790.139 654.6 791.79 655.112 793.091 655.643C794.392 656.173 795.511 657.004 796.447 658.135C797.416 659.233 797.92 660.698 797.957 662.531C797.961 664.131 797.514 665.566 796.617 666.834C795.754 668.103 794.489 669.106 792.824 669.843C791.193 670.547 789.277 670.902 787.077 670.907ZM806.823 670.761C805.556 670.764 804.505 670.383 803.67 669.618C802.868 668.82 802.466 667.837 802.463 666.671C802.46 665.504 802.858 664.537 803.656 663.768C804.488 662.966 805.537 662.564 806.804 662.561C808.037 662.558 809.054 662.955 809.856 663.754C810.658 664.518 811.06 665.484 811.063 666.651C811.066 667.817 810.668 668.802 809.87 669.603C809.072 670.372 808.056 670.758 806.823 670.761ZM835.542 635.443L835.624 670.343L828.624 670.36L828.543 635.46L835.542 635.443ZM857.824 642.191C861.124 642.183 863.793 643.227 865.832 645.322C867.87 647.384 868.893 650.282 868.902 654.015L868.94 670.265L861.94 670.282L861.904 654.982C861.899 652.782 861.345 651.1 860.242 649.936C859.14 648.738 857.638 648.142 855.738 648.146C853.805 648.151 852.273 648.754 851.143 649.957C850.045 651.126 849.499 652.811 849.504 655.011L849.54 670.311L842.54 670.327L842.475 642.627L849.475 642.611L849.483 646.061C850.414 644.859 851.595 643.922 853.027 643.252C854.492 642.549 856.091 642.195 857.824 642.191ZM895.609 648.253L895.641 661.653C895.643 662.586 895.861 663.269 896.295 663.701C896.763 664.1 897.53 664.298 898.597 664.296L901.847 664.288L901.861 670.188L897.461 670.199C891.561 670.212 888.604 667.353 888.591 661.619L888.559 648.269L885.259 648.277L885.246 642.527L888.546 642.519L888.53 635.669L895.58 635.653L895.596 642.503L901.796 642.488L901.809 648.238L895.609 648.253ZM922.43 642.04C924.53 642.035 926.397 642.497 928.033 643.427C929.668 644.323 930.938 645.67 931.842 647.468C932.78 649.232 933.251 651.365 933.257 653.865L933.295 670.115L926.295 670.131L926.26 654.831C926.254 652.631 925.701 650.949 924.598 649.785C923.495 648.588 921.994 647.991 920.094 647.995C918.16 648 916.628 648.604 915.498 649.806C914.401 650.975 913.854 652.66 913.86 654.86L913.895 670.16L906.895 670.176L906.809 633.177L913.809 633.16L913.839 645.91C914.736 644.708 915.934 643.772 917.432 643.102C918.93 642.398 920.596 642.044 922.43 642.04ZM965.668 655.589C965.67 656.589 965.606 657.489 965.474 658.289L945.224 658.337C945.396 660.336 946.099 661.901 947.335 663.032C948.571 664.162 950.089 664.725 951.889 664.721C954.489 664.715 956.337 663.594 957.432 661.358L964.982 661.34C964.188 664.009 962.66 666.213 960.397 667.951C958.134 669.657 955.353 670.513 952.053 670.521C949.386 670.527 946.985 669.949 944.849 668.788C942.746 667.593 941.092 665.913 939.887 663.749C938.715 661.585 938.126 659.087 938.12 656.253C938.113 653.387 938.69 650.869 939.852 648.699C941.014 646.53 942.643 644.859 944.74 643.688C946.837 642.516 949.253 641.927 951.986 641.921C954.619 641.915 956.971 642.476 959.04 643.604C961.143 644.733 962.763 646.346 963.901 648.443C965.073 650.507 965.662 652.889 965.668 655.589ZM958.413 653.606C958.376 651.806 957.723 650.374 956.453 649.31C955.184 648.213 953.633 647.667 951.8 647.671C950.066 647.675 948.601 648.212 947.403 649.282C946.239 650.318 945.526 651.769 945.263 653.637L958.413 653.606ZM154.127 718.838C157.527 718.83 160.263 719.874 162.334 721.969C164.439 724.031 165.496 726.928 165.505 730.662L165.543 746.911L158.543 746.928L158.507 731.628C158.502 729.461 157.948 727.813 156.845 726.682C155.743 725.518 154.241 724.938 152.341 724.942C150.441 724.947 148.926 725.534 147.795 726.703C146.698 727.839 146.152 729.49 146.157 731.657L146.193 746.957L139.193 746.973L139.157 731.673C139.152 729.507 138.598 727.858 137.495 726.727C136.393 725.563 134.891 724.983 132.991 724.988C131.058 724.992 129.526 725.579 128.395 726.748C127.298 727.884 126.752 729.536 126.757 731.702L126.793 747.002L119.793 747.019L119.728 719.319L126.728 719.302L126.736 722.652C127.633 721.483 128.781 720.564 130.179 719.894C131.611 719.224 133.177 718.887 134.877 718.883C137.044 718.878 138.978 719.34 140.68 720.27C142.382 721.166 143.702 722.463 144.639 724.16C145.536 722.558 146.833 721.272 148.53 720.301C150.261 719.33 152.127 718.843 154.127 718.838ZM197.901 732.386C197.904 733.386 197.839 734.286 197.708 735.086L177.458 735.134C177.629 737.133 178.333 738.698 179.569 739.829C180.805 740.959 182.323 741.522 184.123 741.518C186.723 741.512 188.57 740.391 189.665 738.155L197.215 738.137C196.421 740.806 194.893 743.009 192.63 744.748C190.368 746.453 187.586 747.31 184.286 747.318C181.62 747.324 179.218 746.746 177.082 745.584C174.979 744.389 173.325 742.71 172.12 740.546C170.949 738.382 170.359 735.884 170.353 733.05C170.346 730.184 170.924 727.666 172.085 725.496C173.247 723.327 174.876 721.656 176.973 720.485C179.071 719.313 181.486 718.724 184.219 718.718C186.853 718.712 189.204 719.273 191.273 720.401C193.376 721.53 194.996 723.142 196.135 725.24C197.306 727.304 197.895 729.686 197.901 732.386ZM190.647 730.403C190.609 728.603 189.956 727.171 188.687 726.107C187.417 725.01 185.866 724.464 184.033 724.468C182.299 724.472 180.834 725.009 179.637 726.078C178.472 727.115 177.759 728.566 177.497 730.433L190.647 730.403ZM201.212 732.878C201.205 730.078 201.75 727.593 202.844 725.424C203.973 723.255 205.486 721.585 207.383 720.413C209.313 719.242 211.462 718.654 213.829 718.648C215.895 718.644 217.696 719.056 219.232 719.886C220.8 720.715 222.053 721.763 222.989 723.027L222.98 719.077L230.03 719.06L230.094 746.76L223.045 746.777L223.035 742.727C222.138 744.029 220.891 745.115 219.293 745.986C217.728 746.823 215.912 747.244 213.846 747.248C211.512 747.254 209.378 746.659 207.441 745.463C205.539 744.268 204.018 742.588 202.88 740.424C201.774 738.227 201.219 735.711 201.212 732.878ZM223.012 732.927C223.008 731.227 222.671 729.778 222.002 728.579C221.332 727.348 220.43 726.416 219.295 725.786C218.16 725.122 216.943 724.791 215.643 724.794C214.343 724.797 213.144 725.117 212.045 725.753C210.947 726.389 210.049 727.324 209.352 728.559C208.688 729.76 208.358 731.195 208.362 732.861C208.366 734.528 208.703 735.994 209.372 737.259C210.075 738.491 210.977 739.438 212.079 740.103C213.214 740.767 214.415 741.097 215.681 741.094C216.981 741.091 218.197 740.772 219.329 740.136C220.461 739.466 221.359 738.531 222.022 737.329C222.686 736.094 223.016 734.627 223.012 732.927ZM252.215 718.609C255.515 718.601 258.184 719.645 260.223 721.74C262.261 723.802 263.284 726.699 263.293 730.433L263.331 746.683L256.331 746.699L256.295 731.399C256.29 729.199 255.736 727.517 254.634 726.353C253.531 725.156 252.029 724.559 250.129 724.563C248.196 724.568 246.664 725.172 245.534 726.374C244.436 727.543 243.89 729.228 243.895 731.428L243.931 746.728L236.931 746.744L236.866 719.045L243.866 719.028L243.874 722.478C244.805 721.276 245.986 720.34 247.418 719.67C248.883 718.966 250.482 718.613 252.215 718.609ZM278.086 724.698L278.118 738.098C278.12 739.031 278.338 739.714 278.773 740.146C279.24 740.545 280.007 740.744 281.074 740.741L284.324 740.734L284.338 746.633L279.938 746.644C274.038 746.658 271.081 743.798 271.068 738.065L271.036 724.715L267.736 724.722L267.723 718.972L271.023 718.965L271.007 712.115L278.057 712.098L278.073 718.948L284.273 718.934L284.286 724.684L278.086 724.698ZM292.85 715.613C291.617 715.616 290.582 715.235 289.747 714.471C288.945 713.673 288.543 712.69 288.54 711.524C288.538 710.357 288.935 709.389 289.734 708.621C290.565 707.819 291.597 707.416 292.831 707.414C294.064 707.411 295.082 707.808 295.884 708.606C296.719 709.371 297.138 710.337 297.14 711.503C297.143 712.67 296.729 713.654 295.897 714.456C295.099 715.225 294.083 715.611 292.85 715.613ZM296.308 718.905L296.372 746.605L289.372 746.622L289.308 718.922L296.308 718.905ZM337.623 718.409C341.023 718.401 343.758 719.444 345.83 721.54C347.935 723.601 348.992 726.499 349 730.232L349.038 746.482L342.038 746.498L342.003 731.199C341.997 729.032 341.444 727.383 340.341 726.252C339.238 725.088 337.737 724.508 335.837 724.513C333.937 724.517 332.422 725.104 331.291 726.274C330.194 727.409 329.647 729.061 329.653 731.227L329.688 746.527L322.688 746.544L322.653 731.244C322.648 729.077 322.094 727.428 320.991 726.298C319.888 725.134 318.387 724.554 316.487 724.558C314.554 724.563 313.022 725.15 311.891 726.319C310.794 727.455 310.248 729.106 310.253 731.273L310.288 746.573L303.288 746.589L303.224 718.889L310.224 718.873L310.231 722.223C311.129 721.054 312.277 720.135 313.675 719.465C315.107 718.795 316.673 718.458 318.373 718.454C320.539 718.449 322.474 718.911 324.176 719.84C325.878 720.736 327.198 722.033 328.135 723.731C329.031 722.129 330.328 720.842 332.026 719.872C333.757 718.901 335.623 718.413 337.623 718.409ZM381.397 731.956C381.399 732.956 381.335 733.856 381.203 734.657L360.953 734.704C361.125 736.704 361.828 738.269 363.064 739.399C364.3 740.53 365.818 741.093 367.618 741.089C370.218 741.083 372.066 739.962 373.16 737.726L380.71 737.708C379.917 740.376 378.388 742.58 376.126 744.319C373.863 746.024 371.082 746.881 367.782 746.888C365.115 746.894 362.714 746.317 360.578 745.155C358.475 743.96 356.821 742.281 355.616 740.117C354.444 737.953 353.855 735.454 353.848 732.621C353.842 729.754 354.419 727.236 355.581 725.067C356.742 722.897 358.372 721.227 360.469 720.055C362.566 718.884 364.982 718.295 367.715 718.288C370.348 718.282 372.7 718.843 374.769 719.972C376.872 721.1 378.492 722.713 379.63 724.81C380.802 726.874 381.391 729.256 381.397 731.956ZM374.142 729.973C374.105 728.173 373.451 726.742 372.182 725.678C370.913 724.581 369.362 724.034 367.528 724.039C365.795 724.043 364.33 724.58 363.132 725.649C361.968 726.685 361.255 728.137 360.992 730.004L374.142 729.973ZM394.173 739.026L388.356 753.09L383.856 753.101L387.073 739.043L394.173 739.026ZM414.627 715.329C413.394 715.331 412.359 714.95 411.524 714.186C410.722 713.388 410.32 712.405 410.317 711.239C410.315 710.072 410.712 709.104 411.511 708.336C412.342 707.534 413.374 707.131 414.608 707.129C415.841 707.126 416.859 707.523 417.661 708.321C418.496 709.086 418.915 710.052 418.917 711.218C418.92 712.385 418.506 713.369 417.674 714.171C416.876 714.94 415.86 715.326 414.627 715.329ZM418.085 718.62L418.149 746.32L411.149 746.337L411.085 718.637L418.085 718.62ZM437.714 724.325L432.864 724.336L432.915 746.286L425.815 746.302L425.764 724.352L422.614 724.36L422.601 718.61L425.751 718.602L425.747 717.202C425.739 713.803 426.7 711.3 428.63 709.696C430.559 708.091 433.474 707.334 437.374 707.425L437.388 713.325C435.688 713.296 434.506 713.582 433.84 714.184C433.175 714.785 432.844 715.869 432.848 717.436L432.851 718.586L437.701 718.575L437.714 724.325ZM480.651 718.474L463.596 759.314L456.146 759.331L462.114 745.517L450.951 718.544L458.801 718.525L465.996 737.858L473.201 718.491L480.651 718.474ZM496.79 746.586C494.123 746.593 491.722 746.015 489.586 744.853C487.45 743.658 485.763 741.979 484.524 739.815C483.319 737.651 482.713 735.153 482.707 732.319C482.7 729.486 483.311 726.984 484.539 724.815C485.801 722.645 487.513 720.975 489.677 719.803C491.841 718.598 494.257 717.992 496.923 717.986C499.59 717.98 502.008 718.574 504.177 719.769C506.347 720.931 508.051 722.593 509.289 724.757C510.561 726.921 511.2 729.419 511.207 732.253C511.213 735.086 510.569 737.587 509.274 739.757C508.013 741.927 506.283 743.614 504.086 744.819C501.922 745.991 499.49 746.58 496.79 746.586ZM496.776 740.486C498.043 740.483 499.225 740.181 500.324 739.578C501.456 738.942 502.353 738.007 503.017 736.772C503.681 735.537 504.011 734.036 504.007 732.269C504 729.636 503.296 727.621 501.892 726.224C500.522 724.794 498.837 724.081 496.837 724.086C494.837 724.091 493.156 724.811 491.793 726.248C490.462 727.651 489.801 729.669 489.807 732.303C489.813 734.936 490.468 736.968 491.771 738.398C493.108 739.795 494.776 740.491 496.776 740.486ZM542.459 718.329L542.524 746.029L535.474 746.046L535.466 742.546C534.568 743.748 533.387 744.701 531.922 745.404C530.49 746.074 528.925 746.411 527.225 746.415C525.058 746.42 523.14 745.975 521.471 745.079C519.803 744.149 518.483 742.802 517.512 741.038C516.574 739.24 516.103 737.108 516.097 734.641L516.059 718.391L523.059 718.375L523.095 733.625C523.1 735.825 523.654 737.523 524.757 738.721C525.859 739.885 527.361 740.465 529.261 740.46C531.194 740.456 532.709 739.869 533.807 738.7C534.904 737.497 535.45 735.796 535.445 733.596L535.409 718.346L542.459 718.329ZM599.679 718.195L591.644 745.914L584.094 745.932L578.999 726.594L573.994 745.956L566.394 745.973L558.18 718.293L565.28 718.276L570.229 739.364L575.48 718.252L582.879 718.235L588.129 739.273L592.979 718.211L599.679 718.195ZM607.009 714.878C605.776 714.881 604.742 714.5 603.907 713.736C603.105 712.937 602.702 711.955 602.7 710.788C602.697 709.622 603.095 708.654 603.893 707.886C604.724 707.084 605.757 706.681 606.99 706.678C608.223 706.675 609.241 707.073 610.043 707.871C610.878 708.636 611.297 709.602 611.3 710.768C611.302 711.935 610.888 712.919 610.056 713.721C609.258 714.49 608.243 714.875 607.009 714.878ZM610.467 718.17L610.532 745.87L603.532 745.887L603.467 718.187L610.467 718.17ZM628.049 746.279C625.782 746.284 623.748 745.889 621.946 745.093C620.144 744.264 618.708 743.151 617.638 741.754C616.602 740.356 616.031 738.807 615.927 737.108L622.977 737.091C623.113 738.157 623.632 739.039 624.533 739.737C625.468 740.435 626.619 740.783 627.986 740.779C629.319 740.776 630.352 740.507 631.084 739.972C631.849 739.437 632.231 738.753 632.229 737.919C632.227 737.019 631.759 736.354 630.825 735.923C629.923 735.458 628.472 734.961 626.471 734.433C624.403 733.938 622.702 733.425 621.367 732.895C620.066 732.364 618.931 731.55 617.962 730.453C617.026 729.355 616.556 727.873 616.551 726.006C616.548 724.473 616.978 723.072 617.841 721.803C618.738 720.534 620.003 719.531 621.634 718.794C623.299 718.057 625.248 717.686 627.482 717.68C630.782 717.673 633.417 718.5 635.388 720.162C637.358 721.791 638.447 724.005 638.653 726.804L631.953 726.82C631.851 725.72 631.382 724.855 630.547 724.223C629.746 723.558 628.661 723.228 627.295 723.231C626.028 723.234 625.045 723.469 624.346 723.938C623.681 724.406 623.349 725.057 623.351 725.89C623.353 726.823 623.822 727.539 624.756 728.037C625.69 728.501 627.142 728.981 629.109 729.477C631.111 729.972 632.762 730.485 634.063 731.015C635.364 731.545 636.483 732.376 637.419 733.507C638.388 734.605 638.892 736.07 638.929 737.904C638.933 739.504 638.486 740.938 637.589 742.207C636.726 743.476 635.461 744.478 633.796 745.216C632.165 745.92 630.249 746.274 628.049 746.279ZM660.228 717.654C662.328 717.649 664.196 718.111 665.831 719.041C667.467 719.937 668.736 721.284 669.641 723.082C670.578 724.846 671.05 726.978 671.056 729.478L671.094 745.728L664.094 745.745L664.058 730.445C664.053 728.245 663.499 726.563 662.396 725.399C661.293 724.201 659.792 723.605 657.892 723.609C655.959 723.614 654.427 724.217 653.296 725.42C652.199 726.589 651.653 728.274 651.658 730.474L651.694 745.774L644.694 745.79L644.607 708.79L651.607 708.774L651.637 721.524C652.534 720.322 653.732 719.386 655.23 718.715C656.729 718.012 658.395 717.658 660.228 717.654ZM697.763 723.716L697.794 737.116C697.796 738.049 698.015 738.732 698.449 739.164C698.917 739.563 699.684 739.762 700.75 739.759L704 739.751L704.014 745.651L699.614 745.662C693.714 745.676 690.758 742.816 690.744 737.082L690.713 723.732L687.413 723.74L687.4 717.99L690.699 717.982L690.683 711.133L697.733 711.116L697.749 717.966L703.949 717.951L703.963 723.701L697.763 723.716ZM721.35 746.061C718.683 746.067 716.282 745.489 714.146 744.328C712.01 743.133 710.323 741.453 709.084 739.29C707.879 737.126 707.273 734.627 707.267 731.794C707.26 728.96 707.871 726.459 709.099 724.289C710.361 722.12 712.073 720.449 714.237 719.277C716.401 718.072 718.816 717.467 721.483 717.46C724.15 717.454 726.568 718.049 728.737 719.243C730.907 720.405 732.611 722.068 733.849 724.232C735.121 726.395 735.76 728.894 735.767 731.727C735.773 734.56 735.129 737.062 733.834 739.232C732.573 741.401 730.843 743.089 728.646 744.294C726.482 745.465 724.05 746.055 721.35 746.061ZM721.336 739.961C722.602 739.958 723.785 739.655 724.884 739.053C726.016 738.417 726.913 737.481 727.577 736.246C728.241 735.011 728.571 733.511 728.567 731.744C728.56 729.111 727.856 727.096 726.452 725.699C725.082 724.269 723.397 723.556 721.397 723.561C719.397 723.565 717.716 724.286 716.352 725.722C715.022 727.126 714.36 729.144 714.367 731.777C714.373 734.41 715.028 736.442 716.331 737.873C717.667 739.269 719.336 739.966 721.336 739.961ZM751.015 731.691C751.009 728.825 751.586 726.323 752.748 724.187C753.909 722.018 755.522 720.347 757.586 719.176C759.65 717.971 762.015 717.366 764.682 717.359C768.115 717.351 770.951 718.211 773.188 719.939C775.459 721.634 776.981 724.031 777.755 727.129L770.205 727.146C769.802 725.947 769.116 725.016 768.148 724.351C767.213 723.653 766.046 723.306 764.646 723.309C762.646 723.314 761.064 724.051 759.901 725.521C758.738 726.957 758.159 729.008 758.165 731.675C758.171 734.308 758.76 736.357 759.93 737.821C761.1 739.251 762.685 739.964 764.685 739.959C767.518 739.953 769.365 738.682 770.226 736.146L777.776 736.129C777.016 739.131 775.505 741.517 773.243 743.289C770.98 745.061 768.149 745.951 764.749 745.959C762.082 745.966 759.714 745.388 757.645 744.226C755.575 743.031 753.955 741.368 752.783 739.237C751.611 737.073 751.022 734.558 751.015 731.691ZM789.871 722.05C790.768 720.582 791.932 719.429 793.363 718.592C794.828 717.755 796.493 717.335 798.36 717.331L798.377 724.681L796.527 724.685C794.327 724.69 792.662 725.211 791.531 726.247C790.433 727.282 789.887 729.084 789.893 731.65L789.926 745.45L782.926 745.467L782.861 717.767L789.861 717.75L789.871 722.05ZM828.857 730.909C828.859 731.909 828.794 732.809 828.663 733.61L808.413 733.657C808.584 735.657 809.288 737.222 810.524 738.352C811.76 739.483 813.278 740.046 815.078 740.041C817.678 740.035 819.525 738.914 820.62 736.679L828.17 736.661C827.376 739.329 825.848 741.533 823.586 743.272C821.323 744.977 818.542 745.833 815.242 745.841C812.575 745.847 810.174 745.27 808.038 744.108C805.935 742.913 804.281 741.233 803.076 739.07C801.904 736.906 801.315 734.407 801.308 731.574C801.301 728.707 801.879 726.189 803.04 724.02C804.202 721.85 805.832 720.18 807.929 719.008C810.026 717.837 812.441 717.248 815.175 717.241C817.808 717.235 820.159 717.796 822.229 718.925C824.331 720.053 825.952 721.666 827.09 723.763C828.261 725.827 828.85 728.209 828.857 730.909ZM821.602 728.926C821.564 727.126 820.911 725.694 819.642 724.631C818.373 723.534 816.821 722.987 814.988 722.992C813.255 722.996 811.789 723.532 810.592 724.602C809.428 725.638 808.714 727.09 808.452 728.957L821.602 728.926ZM832.167 731.401C832.161 728.601 832.705 726.117 833.8 723.948C834.928 721.778 836.441 720.108 838.338 718.937C840.269 717.766 842.417 717.177 844.784 717.172C846.851 717.167 848.652 717.58 850.187 718.409C851.755 719.239 853.008 720.286 853.944 721.55L853.935 717.601L860.985 717.584L861.05 745.284L854 745.3L853.99 741.25C853.093 742.553 851.846 743.639 850.248 744.509C848.683 745.346 846.868 745.767 844.801 745.772C842.468 745.777 840.333 745.182 838.397 743.987C836.494 742.791 834.973 741.112 833.835 738.948C832.73 736.75 832.174 734.235 832.167 731.401ZM853.967 731.45C853.963 729.75 853.627 728.301 852.957 727.103C852.288 725.871 851.385 724.94 850.251 724.309C849.116 723.645 847.898 723.315 846.598 723.318C845.298 723.321 844.099 723.64 843.001 724.276C841.902 724.912 841.004 725.847 840.307 727.082C839.643 728.284 839.313 729.718 839.317 731.385C839.321 733.051 839.658 734.517 840.327 735.782C841.03 737.014 841.933 737.962 843.034 738.626C844.169 739.29 845.37 739.621 846.636 739.618C847.936 739.615 849.152 739.295 850.284 738.659C851.416 737.99 852.314 737.054 852.978 735.853C853.641 734.618 853.971 733.15 853.967 731.45ZM875.985 723.299L876.016 736.699C876.019 737.632 876.237 738.315 876.671 738.747C877.139 739.146 877.906 739.344 878.973 739.342L882.223 739.334L882.236 745.234L877.836 745.245C871.936 745.258 868.98 742.399 868.966 736.665L868.935 723.315L865.635 723.323L865.622 717.573L868.922 717.565L868.906 710.715L875.956 710.699L875.972 717.549L882.172 717.534L882.185 723.284L875.985 723.299ZM912.987 730.712C912.99 731.712 912.925 732.613 912.794 733.413L892.544 733.46C892.715 735.46 893.419 737.025 894.655 738.155C895.891 739.286 897.409 739.849 899.209 739.845C901.809 739.839 903.656 738.718 904.751 736.482L912.301 736.464C911.507 739.133 909.979 741.336 907.716 743.075C905.454 744.78 902.672 745.637 899.372 745.644C896.706 745.65 894.304 745.073 892.168 743.911C890.065 742.716 888.411 741.037 887.206 738.873C886.035 736.709 885.445 734.21 885.439 731.377C885.432 728.51 886.01 725.992 887.171 723.823C888.333 721.653 889.962 719.983 892.059 718.811C894.157 717.64 896.572 717.051 899.305 717.044C901.939 717.038 904.29 717.599 906.359 718.728C908.462 719.856 910.082 721.469 911.221 723.566C912.392 725.63 912.981 728.012 912.987 730.712ZM905.733 728.729C905.695 726.929 905.042 725.498 903.773 724.434C902.503 723.337 900.952 722.79 899.119 722.795C897.385 722.799 895.92 723.336 894.723 724.405C893.558 725.441 892.845 726.893 892.583 728.76L905.733 728.729ZM928.212 731.177C928.205 728.377 928.75 725.892 929.844 723.723C930.973 721.554 932.485 719.883 934.383 718.712C936.313 717.541 938.462 716.953 940.829 716.947C942.895 716.942 944.696 717.355 946.232 718.185C947.8 719.014 949.053 720.061 949.989 721.326L949.98 717.376L957.03 717.359L957.094 745.059L950.044 745.076L950.035 741.026C949.138 742.328 947.891 743.414 946.293 744.284C944.728 745.121 942.912 745.542 940.846 745.547C938.512 745.553 936.377 744.958 934.441 743.762C932.539 742.567 931.018 740.887 929.88 738.723C928.774 736.525 928.219 734.01 928.212 731.177ZM950.012 731.226C950.008 729.526 949.671 728.077 949.002 726.878C948.332 725.646 947.43 724.715 946.295 724.084C945.16 723.42 943.943 723.09 942.643 723.093C941.343 723.096 940.144 723.415 939.045 724.051C937.947 724.687 937.049 725.623 936.352 726.858C935.688 728.059 935.358 729.493 935.362 731.16C935.366 732.827 935.703 734.293 936.372 735.558C937.075 736.789 937.977 737.737 939.079 738.401C940.214 739.065 941.414 739.396 942.681 739.393C943.981 739.39 945.197 739.07 946.329 738.434C947.461 737.765 948.358 736.83 949.022 735.628C949.686 734.393 950.016 732.926 950.012 731.226ZM979.215 716.907C982.515 716.9 985.184 717.943 987.223 720.039C989.261 722.101 990.284 724.998 990.293 728.731L990.331 744.981L983.331 744.998L983.295 729.698C983.29 727.498 982.736 725.816 981.633 724.652C980.531 723.454 979.029 722.858 977.129 722.862C975.196 722.867 973.664 723.47 972.534 724.673C971.436 725.842 970.89 727.527 970.895 729.727L970.931 745.027L963.931 745.043L963.866 717.343L970.866 717.327L970.874 720.777C971.805 719.575 972.986 718.639 974.418 717.969C975.883 717.265 977.482 716.911 979.215 716.907ZM152.813 807.491C152.816 808.491 152.751 809.392 152.62 810.192L132.37 810.239C132.541 812.239 133.245 813.804 134.481 814.934C135.717 816.065 137.235 816.628 139.035 816.624C141.635 816.618 143.482 815.497 144.577 813.261L152.127 813.243C151.333 815.912 149.805 818.115 147.542 819.854C145.28 821.559 142.498 822.416 139.198 822.423C136.532 822.43 134.13 821.852 131.994 820.69C129.891 819.495 128.237 817.816 127.032 815.652C125.861 813.488 125.271 810.989 125.265 808.156C125.258 805.289 125.836 802.771 126.997 800.602C128.159 798.432 129.788 796.762 131.885 795.59C133.983 794.419 136.398 793.83 139.131 793.823C141.765 793.817 144.116 794.378 146.185 795.507C148.288 796.635 149.908 798.248 151.047 800.346C152.218 802.409 152.807 804.791 152.813 807.491ZM145.559 805.508C145.521 803.708 144.868 802.277 143.599 801.213C142.329 800.116 140.778 799.57 138.945 799.574C137.211 799.578 135.746 800.115 134.549 801.184C133.384 802.22 132.671 803.672 132.409 805.539L145.559 805.508ZM169.491 815.452L176.442 794.186L183.892 794.169L173.706 821.893L165.207 821.912L154.942 794.236L162.442 794.219L169.491 815.452ZM213.604 807.349C213.607 808.349 213.542 809.249 213.411 810.05L193.161 810.097C193.332 812.097 194.036 813.662 195.272 814.792C196.508 815.923 198.026 816.486 199.826 816.481C202.426 816.475 204.273 815.354 205.368 813.118L212.918 813.101C212.124 815.769 210.596 817.973 208.333 819.712C206.07 821.417 203.289 822.273 199.989 822.281C197.322 822.287 194.921 821.71 192.785 820.548C190.682 819.353 189.028 817.673 187.823 815.51C186.651 813.346 186.062 810.847 186.056 808.014C186.049 805.147 186.626 802.629 187.788 800.46C188.95 798.29 190.579 796.62 192.676 795.448C194.774 794.277 197.189 793.688 199.922 793.681C202.555 793.675 204.907 794.236 206.976 795.365C209.079 796.493 210.699 798.106 211.837 800.203C213.009 802.267 213.598 804.649 213.604 807.349ZM206.35 805.366C206.312 803.566 205.659 802.134 204.389 801.071C203.12 799.974 201.569 799.427 199.736 799.432C198.002 799.436 196.537 799.972 195.339 801.042C194.175 802.078 193.462 803.53 193.2 805.397L206.35 805.366ZM234.032 793.651C237.332 793.644 240.001 794.687 242.039 796.783C244.077 798.845 245.101 801.742 245.109 805.475L245.147 821.725L238.147 821.742L238.112 806.442C238.106 804.242 237.552 802.56 236.45 801.396C235.347 800.198 233.845 799.602 231.945 799.606C230.012 799.611 228.48 800.214 227.35 801.417C226.252 802.586 225.706 804.271 225.712 806.471L225.747 821.771L218.747 821.787L218.683 794.087L225.683 794.071L225.691 797.521C226.621 796.319 227.802 795.383 229.234 794.713C230.699 794.009 232.298 793.655 234.032 793.651ZM259.903 799.741L259.934 813.141C259.936 814.074 260.154 814.757 260.589 815.189C261.056 815.588 261.823 815.786 262.89 815.784L266.14 815.776L266.154 821.676L261.754 821.687C255.854 821.7 252.897 818.841 252.884 813.107L252.853 799.757L249.553 799.765L249.539 794.015L252.839 794.007L252.823 787.157L259.873 787.141L259.889 793.991L266.089 793.976L266.103 799.726L259.903 799.741ZM291.201 799.668L291.233 813.068C291.235 814.001 291.453 814.684 291.887 815.116C292.355 815.515 293.122 815.713 294.189 815.711L297.439 815.703L297.453 821.603L293.053 821.613C287.153 821.627 284.196 818.767 284.183 813.034L284.151 799.684L280.851 799.692L280.838 793.942L284.138 793.934L284.122 787.084L291.172 787.068L291.188 793.918L297.388 793.903L297.401 799.653L291.201 799.668ZM318.022 793.455C320.122 793.45 321.989 793.912 323.625 794.842C325.26 795.738 326.53 797.085 327.434 798.883C328.372 800.647 328.843 802.779 328.849 805.279L328.887 821.529L321.887 821.546L321.852 806.246C321.846 804.046 321.292 802.364 320.19 801.2C319.087 800.002 317.585 799.406 315.686 799.41C313.752 799.415 312.22 800.018 311.09 801.221C309.992 802.39 309.446 804.075 309.452 806.275L309.487 821.575L302.487 821.591L302.401 784.591L309.401 784.575L309.431 797.325C310.328 796.123 311.526 795.187 313.024 794.516C314.522 793.813 316.188 793.459 318.022 793.455ZM361.26 807.004C361.262 808.004 361.198 808.904 361.066 809.704L340.816 809.751C340.988 811.751 341.691 813.316 342.927 814.447C344.163 815.577 345.681 816.14 347.481 816.136C350.081 816.13 351.929 815.009 353.024 812.773L360.573 812.755C359.78 815.424 358.252 817.627 355.989 819.366C353.726 821.071 350.945 821.928 347.645 821.936C344.978 821.942 342.577 821.364 340.441 820.202C338.338 819.007 336.684 817.328 335.479 815.164C334.307 813 333.718 810.501 333.712 807.668C333.705 804.801 334.282 802.283 335.444 800.114C336.605 797.945 338.235 796.274 340.332 795.103C342.429 793.931 344.845 793.342 347.578 793.336C350.211 793.329 352.563 793.891 354.632 795.019C356.735 796.148 358.355 797.76 359.493 799.858C360.665 801.922 361.254 804.304 361.26 807.004ZM354.005 805.021C353.968 803.221 353.314 801.789 352.045 800.725C350.776 799.628 349.225 799.082 347.391 799.086C345.658 799.09 344.193 799.627 342.995 800.696C341.831 801.732 341.118 803.184 340.855 805.051L354.005 805.021ZM381.687 793.306C384.987 793.298 387.657 794.342 389.695 796.437C391.733 798.499 392.756 801.397 392.765 805.13L392.803 821.38L385.803 821.396L385.767 806.096C385.762 803.896 385.208 802.214 384.106 801.05C383.003 799.853 381.501 799.256 379.601 799.261C377.668 799.265 376.136 799.869 375.006 801.071C373.908 802.241 373.362 803.925 373.367 806.125L373.403 821.425L366.403 821.442L366.338 793.742L373.338 793.725L373.346 797.175C374.277 795.973 375.458 795.037 376.89 794.367C378.355 793.664 379.954 793.31 381.687 793.306ZM449.709 793.547L441.674 821.266L434.124 821.283L429.028 801.945L424.024 821.307L416.424 821.325L408.209 793.644L415.309 793.627L420.258 814.716L425.509 793.603L432.909 793.586L438.158 814.624L443.009 793.562L449.709 793.547ZM479.277 806.727C479.28 807.727 479.215 808.628 479.084 809.428L458.834 809.475C459.005 811.475 459.709 813.04 460.945 814.17C462.181 815.301 463.699 815.864 465.499 815.86C468.099 815.854 469.946 814.733 471.041 812.497L478.591 812.479C477.797 815.148 476.269 817.351 474.006 819.09C471.744 820.795 468.962 821.652 465.662 821.659C462.996 821.666 460.594 821.088 458.458 819.926C456.355 818.731 454.701 817.052 453.496 814.888C452.325 812.724 451.735 810.225 451.729 807.392C451.722 804.525 452.3 802.007 453.461 799.838C454.623 797.668 456.252 795.998 458.349 794.826C460.447 793.655 462.862 793.066 465.595 793.059C468.229 793.053 470.58 793.614 472.649 794.743C474.752 795.871 476.372 797.484 477.511 799.582C478.682 801.646 479.271 804.027 479.277 806.727ZM472.023 804.744C471.985 802.945 471.332 801.513 470.063 800.449C468.793 799.352 467.242 798.806 465.409 798.81C463.675 798.814 462.21 799.351 461.012 800.42C459.848 801.456 459.135 802.908 458.873 804.775L472.023 804.744ZM494.502 807.292C494.495 804.425 495.073 801.924 496.235 799.788C497.396 797.618 499.009 795.948 501.073 794.776C503.137 793.572 505.502 792.966 508.169 792.96C511.602 792.952 514.437 793.812 516.675 795.54C518.945 797.235 520.468 799.631 521.241 802.729L513.692 802.747C513.289 801.548 512.603 800.616 511.635 799.952C510.7 799.254 509.533 798.907 508.133 798.91C506.133 798.915 504.551 799.652 503.388 801.121C502.224 802.557 501.646 804.608 501.652 807.275C501.658 809.908 502.246 811.957 503.416 813.421C504.586 814.852 506.171 815.565 508.171 815.56C511.005 815.553 512.852 814.282 513.713 811.747L521.263 811.729C520.503 814.731 518.992 817.118 516.729 818.89C514.467 820.662 511.636 821.552 508.236 821.56C505.569 821.566 503.201 820.988 501.131 819.826C499.062 818.631 497.441 816.968 496.27 814.838C495.098 812.674 494.509 810.159 494.502 807.292ZM524.58 807.121C524.573 804.321 525.118 801.837 526.212 799.668C527.341 797.498 528.853 795.828 530.751 794.657C532.681 793.486 534.83 792.897 537.197 792.892C539.263 792.887 541.064 793.3 542.6 794.129C544.168 794.959 545.421 796.006 546.357 797.27L546.348 793.32L553.398 793.304L553.462 821.004L546.412 821.02L546.403 816.97C545.506 818.273 544.259 819.359 542.661 820.229C541.096 821.066 539.28 821.487 537.214 821.492C534.88 821.497 532.746 820.902 530.809 819.707C528.907 818.511 527.386 816.832 526.248 814.668C525.142 812.47 524.587 809.955 524.58 807.121ZM546.38 807.17C546.376 805.47 546.039 804.021 545.37 802.823C544.7 801.591 543.798 800.66 542.663 800.029C541.528 799.365 540.311 799.035 539.011 799.038C537.711 799.041 536.512 799.36 535.413 799.996C534.315 800.632 533.417 801.567 532.72 802.802C532.056 804.004 531.726 805.438 531.73 807.105C531.734 808.771 532.071 810.237 532.74 811.502C533.443 812.734 534.345 813.682 535.447 814.346C536.582 815.01 537.783 815.341 539.049 815.338C540.349 815.335 541.565 815.015 542.697 814.379C543.829 813.71 544.727 812.774 545.39 811.573C546.054 810.338 546.384 808.87 546.38 807.17ZM575.583 792.852C578.883 792.844 581.552 793.888 583.591 795.983C585.629 798.045 586.652 800.943 586.661 804.676L586.699 820.926L579.699 820.943L579.663 805.643C579.658 803.443 579.104 801.761 578.001 800.596C576.899 799.399 575.397 798.803 573.497 798.807C571.564 798.811 570.032 799.415 568.902 800.618C567.804 801.787 567.258 803.472 567.263 805.672L567.299 820.972L560.299 820.988L560.234 793.288L567.234 793.272L567.242 796.722C568.173 795.519 569.354 794.583 570.786 793.913C572.251 793.21 573.85 792.856 575.583 792.852ZM603.437 806.937C603.431 804.137 603.975 801.652 605.07 799.483C606.198 797.314 607.727 795.644 609.658 794.472C611.589 793.301 613.737 792.713 616.104 792.707C617.904 792.703 619.621 793.099 621.257 793.895C622.892 794.658 624.194 795.688 625.164 796.986L625.133 783.836L632.233 783.819L632.32 820.819L625.22 820.836L625.21 816.736C624.347 818.105 623.133 819.208 621.568 820.045C620.003 820.882 618.187 821.302 616.121 821.307C613.787 821.313 611.653 820.718 609.717 819.522C607.78 818.327 606.243 816.647 605.105 814.483C604 812.286 603.444 809.77 603.437 806.937ZM625.237 806.986C625.233 805.286 624.897 803.837 624.227 802.638C623.558 801.407 622.655 800.475 621.521 799.845C620.386 799.181 619.168 798.85 617.868 798.853C616.568 798.856 615.369 799.176 614.27 799.812C613.172 800.447 612.274 801.383 611.577 802.618C610.913 803.819 610.583 805.254 610.587 806.92C610.591 808.587 610.928 810.053 611.597 811.318C612.3 812.55 613.202 813.497 614.304 814.162C615.439 814.826 616.64 815.156 617.906 815.153C619.206 815.15 620.422 814.831 621.554 814.195C622.686 813.525 623.584 812.59 624.248 811.388C624.911 810.153 625.241 808.686 625.237 806.986ZM651.457 821.225C648.791 821.231 646.389 820.653 644.253 819.491C642.117 818.296 640.43 816.617 639.192 814.453C637.986 812.289 637.381 809.791 637.374 806.958C637.367 804.124 637.978 801.623 639.206 799.453C640.468 797.284 642.181 795.613 644.345 794.441C646.509 793.236 648.924 792.63 651.59 792.624C654.257 792.618 656.675 793.212 658.845 794.407C661.014 795.569 662.718 797.232 663.956 799.395C665.228 801.559 665.867 804.058 665.874 806.891C665.881 809.724 665.236 812.226 663.941 814.395C662.68 816.565 660.95 818.252 658.753 819.458C656.589 820.629 654.157 821.218 651.457 821.225ZM651.443 815.125C652.71 815.122 653.892 814.819 654.991 814.216C656.123 813.58 657.021 812.645 657.684 811.41C658.348 810.175 658.678 808.674 658.674 806.908C658.668 804.274 657.963 802.259 656.56 800.863C655.19 799.432 653.505 798.72 651.505 798.724C649.505 798.729 647.823 799.45 646.46 800.886C645.13 802.289 644.468 804.308 644.474 806.941C644.48 809.574 645.135 811.606 646.438 813.036C647.775 814.433 649.443 815.129 651.443 815.125ZM691.054 798.732L691.085 812.132C691.087 813.065 691.305 813.748 691.74 814.18C692.207 814.579 692.975 814.777 694.041 814.775L697.291 814.767L697.305 820.667L692.905 820.678C687.005 820.691 684.048 817.832 684.035 812.098L684.004 798.748L680.704 798.756L680.69 793.006L683.99 792.998L683.974 786.148L691.024 786.132L691.04 792.982L697.24 792.967L697.254 798.717L691.054 798.732ZM717.874 792.519C719.974 792.514 721.842 792.976 723.477 793.906C725.113 794.802 726.383 796.149 727.287 797.947C728.224 799.712 728.696 801.844 728.702 804.344L728.74 820.594L721.74 820.61L721.704 805.31C721.699 803.11 721.145 801.428 720.042 800.264C718.939 799.067 717.438 798.47 715.538 798.475C713.605 798.479 712.073 799.083 710.942 800.285C709.845 801.455 709.299 803.139 709.304 805.339L709.34 820.639L702.34 820.656L702.253 783.656L709.253 783.639L709.283 796.389C710.18 795.187 711.378 794.251 712.876 793.581C714.375 792.877 716.041 792.523 717.874 792.519ZM733.564 806.632C733.557 803.832 734.101 801.348 735.196 799.179C736.325 797.009 737.837 795.339 739.735 794.168C741.665 792.997 743.814 792.408 746.18 792.403C748.247 792.398 750.048 792.81 751.583 793.64C753.152 794.47 754.404 795.517 755.341 796.781L755.331 792.831L762.381 792.815L762.446 820.515L755.396 820.531L755.387 816.481C754.49 817.783 753.242 818.87 751.644 819.74C750.08 820.577 748.264 820.998 746.197 821.003C743.864 821.008 741.729 820.413 739.793 819.218C737.89 818.022 736.37 816.343 735.231 814.179C734.126 811.981 733.57 809.466 733.564 806.632ZM755.364 806.681C755.36 804.981 755.023 803.532 754.354 802.334C753.684 801.102 752.782 800.171 751.647 799.54C750.512 798.876 749.295 798.546 747.995 798.549C746.695 798.552 745.496 798.871 744.397 799.507C743.299 800.143 742.401 801.078 741.704 802.313C741.04 803.515 740.71 804.949 740.714 806.616C740.718 808.282 741.054 809.748 741.724 811.013C742.427 812.245 743.329 813.193 744.431 813.857C745.566 814.521 746.766 814.852 748.033 814.849C749.333 814.846 750.549 814.526 751.681 813.89C752.813 813.221 753.71 812.285 754.374 811.084C755.038 809.849 755.368 808.381 755.364 806.681ZM777.382 798.53L777.413 811.93C777.415 812.863 777.633 813.546 778.068 813.978C778.535 814.377 779.302 814.575 780.369 814.573L783.619 814.565L783.633 820.465L779.233 820.476C773.333 820.489 770.376 817.63 770.363 811.896L770.332 798.546L767.032 798.554L767.018 792.804L770.318 792.796L770.302 785.946L777.352 785.93L777.368 792.78L783.568 792.765L783.582 798.515L777.382 798.53ZM813.23 798.446L808.38 798.457L808.432 820.407L801.332 820.424L801.28 798.474L798.13 798.481L798.117 792.731L801.267 792.724L801.264 791.324C801.256 787.924 802.216 785.422 804.146 783.817C806.076 782.213 808.991 781.456 812.891 781.547L812.905 787.447C811.204 787.417 810.022 787.703 809.357 788.305C808.691 788.907 808.361 789.991 808.364 791.557L808.367 792.707L813.217 792.696L813.23 798.446ZM830.119 820.807C827.452 820.813 825.051 820.235 822.915 819.073C820.779 817.878 819.092 816.199 817.853 814.035C816.648 811.871 816.042 809.373 816.036 806.539C816.029 803.706 816.64 801.205 817.868 799.035C819.13 796.866 820.842 795.195 823.006 794.023C825.17 792.818 827.585 792.212 830.252 792.206C832.919 792.2 835.337 792.794 837.506 793.989C839.676 795.151 841.38 796.813 842.618 798.977C843.89 801.141 844.529 803.639 844.536 806.473C844.542 809.306 843.898 811.808 842.603 813.977C841.341 816.147 839.612 817.834 837.415 819.039C835.251 820.211 832.819 820.8 830.119 820.807ZM830.105 814.707C831.371 814.704 832.554 814.401 833.653 813.798C834.784 813.162 835.682 812.227 836.346 810.992C837.01 809.757 837.34 808.256 837.336 806.49C837.329 803.856 836.625 801.841 835.221 800.445C833.851 799.014 832.166 798.302 830.166 798.306C828.166 798.311 826.485 799.032 825.121 800.468C823.791 801.871 823.129 803.889 823.136 806.523C823.142 809.156 823.796 811.188 825.1 812.618C826.436 814.015 828.105 814.711 830.105 814.707ZM856.648 796.894C857.544 795.426 858.708 794.273 860.14 793.436C861.605 792.599 863.27 792.179 865.137 792.174L865.154 799.524L863.304 799.529C861.104 799.534 859.439 800.055 858.308 801.09C857.21 802.126 856.664 803.928 856.67 806.494L856.703 820.294L849.703 820.311L849.638 792.611L856.638 792.594L856.648 796.894ZM908.267 792.474L891.212 833.314L883.762 833.331L889.73 819.517L878.567 792.543L886.417 792.525L893.612 811.858L900.817 792.491L908.267 792.474ZM924.406 820.586C921.739 820.592 919.338 820.014 917.202 818.853C915.066 817.658 913.378 815.978 912.14 813.815C910.935 811.651 910.329 809.152 910.322 806.319C910.316 803.485 910.927 800.984 912.155 798.814C913.416 796.645 915.129 794.974 917.293 793.802C919.457 792.597 921.872 791.992 924.539 791.985C927.206 791.979 929.624 792.574 931.793 793.769C933.963 794.93 935.666 796.593 936.905 798.757C938.177 800.92 938.816 803.419 938.822 806.252C938.829 809.085 938.185 811.587 936.89 813.757C935.628 815.926 933.899 817.614 931.702 818.819C929.538 819.991 927.106 820.58 924.406 820.586ZM924.392 814.486C925.658 814.483 926.841 814.18 927.939 813.578C929.071 812.942 929.969 812.006 930.633 810.771C931.297 809.536 931.627 808.036 931.622 806.269C931.616 803.636 930.911 801.621 929.508 800.224C928.138 798.794 926.453 798.081 924.453 798.086C922.453 798.09 920.772 798.811 919.408 800.248C918.078 801.651 917.416 803.669 917.422 806.302C917.429 808.936 918.083 810.967 919.387 812.398C920.723 813.794 922.392 814.491 924.392 814.486ZM970.075 792.329L970.139 820.029L963.089 820.045L963.081 816.545C962.184 817.747 961.003 818.7 959.538 819.404C958.106 820.074 956.54 820.411 954.84 820.415C952.674 820.42 950.756 819.974 949.087 819.078C947.418 818.149 946.098 816.802 945.128 815.037C944.19 813.24 943.718 811.107 943.713 808.641L943.675 792.391L950.675 792.374L950.71 807.624C950.716 809.824 951.269 811.523 952.372 812.72C953.475 813.885 954.976 814.464 956.876 814.46C958.81 814.455 960.325 813.868 961.422 812.699C962.519 811.497 963.065 809.795 963.06 807.595L963.025 792.345L970.075 792.329ZM980.147 820.355C978.88 820.358 977.829 819.978 976.994 819.213C976.192 818.415 975.79 817.432 975.787 816.266C975.785 815.099 976.182 814.131 976.981 813.363C977.812 812.561 978.861 812.158 980.128 812.155C981.361 812.153 982.379 812.55 983.18 813.348C983.982 814.113 984.385 815.079 984.387 816.246C984.39 817.412 983.992 818.396 983.194 819.198C982.396 819.967 981.38 820.353 980.147 820.355ZM314.726 872.463C314.731 874.329 314.285 876.08 313.389 877.716C312.526 879.351 311.146 880.671 309.248 881.676C307.384 882.68 305.018 883.185 302.151 883.192L296.301 883.206L296.333 896.606L289.333 896.622L289.251 861.722L302.101 861.692C304.801 861.686 307.102 862.147 309.004 863.076C310.907 864.005 312.326 865.285 313.263 866.916C314.234 868.547 314.722 870.396 314.726 872.463ZM301.838 877.543C303.772 877.538 305.204 877.102 306.135 876.233C307.066 875.331 307.53 874.08 307.526 872.48C307.518 869.08 305.614 867.384 301.814 867.393L296.264 867.406L296.288 877.556L301.838 877.543ZM326.666 859.535L326.753 896.535L319.753 896.551L319.666 859.551L326.666 859.535ZM359.385 882.008C359.387 883.008 359.323 883.908 359.191 884.709L338.941 884.756C339.112 886.756 339.816 888.321 341.052 889.451C342.288 890.582 343.806 891.145 345.606 891.141C348.206 891.134 350.053 890.013 351.148 887.778L358.698 887.76C357.904 890.428 356.376 892.632 354.114 894.371C351.851 896.076 349.07 896.932 345.77 896.94C343.103 896.946 340.702 896.369 338.566 895.207C336.463 894.012 334.809 892.332 333.604 890.169C332.432 888.005 331.843 885.506 331.836 882.673C331.83 879.806 332.407 877.288 333.569 875.119C334.73 872.949 336.36 871.279 338.457 870.107C340.554 868.936 342.969 868.347 345.703 868.34C348.336 868.334 350.687 868.895 352.757 870.024C354.859 871.152 356.48 872.765 357.618 874.862C358.79 876.926 359.378 879.308 359.385 882.008ZM352.13 880.025C352.093 878.225 351.439 876.793 350.17 875.73C348.901 874.633 347.35 874.086 345.516 874.091C343.783 874.095 342.317 874.631 341.12 875.701C339.956 876.737 339.242 878.189 338.98 880.056L352.13 880.025ZM362.695 882.5C362.689 879.701 363.233 877.216 364.328 875.047C365.456 872.877 366.969 871.207 368.866 870.036C370.797 868.865 372.945 868.276 375.312 868.271C377.379 868.266 379.18 868.679 380.715 869.508C382.284 870.338 383.536 871.385 384.472 872.65L384.463 868.7L391.513 868.683L391.578 896.383L384.528 896.399L384.518 892.349C383.621 893.652 382.374 894.738 380.776 895.608C379.211 896.445 377.396 896.866 375.329 896.871C372.996 896.876 370.861 896.281 368.925 895.086C367.022 893.89 365.501 892.211 364.363 890.047C363.258 887.849 362.702 885.334 362.695 882.5ZM384.495 882.549C384.492 880.849 384.155 879.4 383.485 878.202C382.816 876.97 381.914 876.039 380.779 875.408C379.644 874.744 378.426 874.414 377.126 874.417C375.826 874.42 374.627 874.739 373.529 875.375C372.43 876.011 371.532 876.946 370.835 878.181C370.171 879.383 369.841 880.817 369.845 882.484C369.849 884.15 370.186 885.616 370.856 886.881C371.558 888.113 372.461 889.061 373.562 889.725C374.697 890.389 375.898 890.72 377.165 890.717C378.465 890.714 379.68 890.394 380.812 889.758C381.944 889.089 382.842 888.153 383.506 886.952C384.17 885.717 384.499 884.249 384.495 882.549ZM409.016 896.792C406.749 896.797 404.715 896.402 402.913 895.606C401.111 894.777 399.675 893.664 398.605 892.266C397.568 890.869 396.998 889.32 396.894 887.62L403.944 887.604C404.08 888.67 404.599 889.552 405.5 890.25C406.435 890.948 407.586 891.295 408.953 891.292C410.286 891.289 411.319 891.02 412.051 890.485C412.816 889.95 413.198 889.266 413.196 888.432C413.194 887.532 412.726 886.867 411.791 886.436C410.89 885.971 409.439 885.474 407.438 884.946C405.37 884.451 403.669 883.938 402.334 883.408C401.033 882.877 399.898 882.063 398.929 880.966C397.993 879.868 397.522 878.386 397.518 876.519C397.515 874.986 397.945 873.585 398.808 872.316C399.705 871.047 400.97 870.044 402.601 869.307C404.266 868.57 406.215 868.199 408.449 868.193C411.749 868.186 414.384 869.013 416.354 870.675C418.325 872.304 419.413 874.518 419.62 877.317L412.92 877.333C412.817 876.233 412.349 875.368 411.514 874.736C410.712 874.071 409.628 873.741 408.262 873.744C406.995 873.747 406.012 873.982 405.313 874.451C404.648 874.919 404.316 875.57 404.318 876.403C404.32 877.336 404.788 878.052 405.723 878.55C406.657 879.014 408.108 879.494 410.076 879.99C412.077 880.485 413.729 880.998 415.03 881.528C416.331 882.058 417.45 882.889 418.386 884.02C419.355 885.118 419.858 886.583 419.896 888.417C419.9 890.017 419.453 891.451 418.556 892.72C417.692 893.988 416.428 894.991 414.763 895.729C413.131 896.433 411.216 896.787 409.016 896.792ZM451.377 881.793C451.379 882.793 451.314 883.693 451.183 884.493L430.933 884.541C431.104 886.54 431.808 888.105 433.044 889.236C434.28 890.366 435.798 890.929 437.598 890.925C440.198 890.919 442.045 889.798 443.14 887.562L450.69 887.545C449.896 890.213 448.368 892.417 446.106 894.155C443.843 895.861 441.062 896.717 437.762 896.725C435.095 896.731 432.694 896.153 430.558 894.992C428.455 893.797 426.801 892.117 425.596 889.953C424.424 887.789 423.835 885.291 423.828 882.457C423.821 879.591 424.399 877.073 425.561 874.903C426.722 872.734 428.352 871.063 430.449 869.892C432.546 868.72 434.961 868.131 437.695 868.125C440.328 868.119 442.679 868.68 444.749 869.808C446.851 870.937 448.472 872.55 449.61 874.647C450.781 876.711 451.37 879.093 451.377 881.793ZM444.122 879.81C444.084 878.01 443.431 876.578 442.162 875.515C440.893 874.417 439.341 873.871 437.508 873.875C435.775 873.879 434.309 874.416 433.112 875.486C431.948 876.522 431.234 877.973 430.972 879.841L444.122 879.81ZM481.083 874.223L476.233 874.235L476.284 896.185L469.184 896.201L469.133 874.251L465.983 874.259L465.969 868.509L469.119 868.501L469.116 867.101C469.108 863.701 470.069 861.199 471.998 859.595C473.928 857.99 476.843 857.233 480.743 857.324L480.757 863.224C479.057 863.195 477.874 863.481 477.209 864.082C476.544 864.684 476.213 865.768 476.216 867.335L476.219 868.485L481.069 868.473L481.083 874.223ZM489.148 865.155C487.914 865.157 486.88 864.777 486.045 864.012C485.243 863.214 484.841 862.231 484.838 861.065C484.835 859.898 485.233 858.93 486.031 858.162C486.863 857.36 487.895 856.957 489.128 856.955C490.362 856.952 491.379 857.349 492.181 858.147C493.016 858.912 493.435 859.878 493.438 861.044C493.441 862.211 493.026 863.195 492.195 863.997C491.397 864.766 490.381 865.152 489.148 865.155ZM492.605 868.446L492.67 896.146L485.67 896.163L485.605 868.463L492.605 868.446ZM506.5 859.114L506.586 896.114L499.586 896.13L499.5 859.13L506.5 859.114ZM520.416 859.081L520.502 896.081L513.502 896.098L513.416 859.098L520.416 859.081ZM542.81 865.029C541.576 865.032 540.542 864.651 539.707 863.886C538.905 863.088 538.503 862.106 538.5 860.939C538.497 859.772 538.895 858.805 539.693 858.036C540.525 857.234 541.557 856.832 542.79 856.829C544.024 856.826 545.041 857.224 545.843 858.022C546.678 858.787 547.097 859.752 547.1 860.919C547.103 862.086 546.688 863.07 545.857 863.872C545.059 864.64 544.043 865.026 542.81 865.029ZM546.267 868.321L546.332 896.021L539.332 896.037L539.267 868.337L546.267 868.321ZM568.532 867.869C571.832 867.861 574.501 868.905 576.54 871C578.578 873.062 579.601 875.96 579.61 879.693L579.648 895.943L572.648 895.959L572.612 880.659C572.607 878.459 572.053 876.777 570.95 875.613C569.848 874.416 568.346 873.819 566.446 873.824C564.513 873.828 562.981 874.432 561.85 875.634C560.753 876.804 560.207 878.488 560.212 880.688L560.248 895.988L553.248 896.005L553.183 868.305L560.183 868.288L560.191 871.738C561.122 870.536 562.303 869.6 563.735 868.93C565.2 868.227 566.799 867.873 568.532 867.869ZM606.317 873.93L606.349 887.33C606.351 888.264 606.569 888.946 607.003 889.379C607.471 889.778 608.238 889.976 609.305 889.973L612.555 889.966L612.569 895.866L608.169 895.876C602.269 895.89 599.312 893.03 599.299 887.297L599.267 873.947L595.967 873.955L595.954 868.205L599.254 868.197L599.238 861.347L606.288 861.33L606.304 868.18L612.504 868.166L612.517 873.916L606.317 873.93ZM633.138 867.718C635.238 867.713 637.105 868.175 638.741 869.104C640.376 870.001 641.646 871.348 642.55 873.146C643.488 874.91 643.959 877.042 643.965 879.542L644.003 895.792L637.003 895.809L636.968 880.509C636.962 878.309 636.408 876.627 635.306 875.463C634.203 874.265 632.702 873.669 630.802 873.673C628.868 873.678 627.336 874.281 626.206 875.484C625.109 876.653 624.562 878.338 624.568 880.538L624.603 895.838L617.603 895.854L617.517 858.854L624.517 858.838L624.547 871.588C625.444 870.386 626.642 869.449 628.14 868.779C629.638 868.076 631.304 867.722 633.138 867.718ZM676.376 881.266C676.378 882.266 676.314 883.167 676.182 883.967L655.932 884.014C656.104 886.014 656.807 887.579 658.043 888.709C659.279 889.84 660.797 890.403 662.597 890.399C665.197 890.393 667.045 889.272 668.14 887.036L675.69 887.018C674.896 889.687 673.368 891.89 671.105 893.629C668.842 895.334 666.061 896.191 662.761 896.198C660.094 896.205 657.693 895.627 655.557 894.465C653.454 893.27 651.8 891.591 650.595 889.427C649.423 887.263 648.834 884.764 648.828 881.931C648.821 879.064 649.398 876.546 650.56 874.377C651.721 872.207 653.351 870.537 655.448 869.365C657.545 868.194 659.961 867.605 662.694 867.598C665.327 867.592 667.679 868.153 669.748 869.282C671.851 870.41 673.471 872.023 674.609 874.121C675.781 876.184 676.37 878.566 676.376 881.266ZM669.121 879.283C669.084 877.484 668.431 876.052 667.161 874.988C665.892 873.891 664.341 873.345 662.508 873.349C660.774 873.353 659.309 873.89 658.111 874.959C656.947 875.995 656.234 877.447 655.971 879.314L669.121 879.283ZM706.082 873.697L701.232 873.708L701.283 895.658L694.183 895.675L694.132 873.725L690.982 873.732L690.968 867.982L694.118 867.975L694.115 866.575C694.107 863.175 695.068 860.673 696.998 859.068C698.927 857.464 701.842 856.707 705.742 856.798L705.756 862.698C704.056 862.668 702.873 862.954 702.208 863.556C701.543 864.158 701.212 865.242 701.216 866.808L701.218 867.958L706.068 867.947L706.082 873.697ZM722.971 896.057C720.304 896.064 717.903 895.486 715.767 894.324C713.63 893.129 711.943 891.45 710.705 889.286C709.5 887.122 708.894 884.624 708.887 881.79C708.881 878.957 709.491 876.456 710.72 874.286C711.981 872.116 713.694 870.446 715.858 869.274C718.022 868.069 720.437 867.463 723.104 867.457C725.77 867.451 728.188 868.045 730.358 869.24C732.527 870.402 734.231 872.064 735.47 874.228C736.741 876.392 737.38 878.89 737.387 881.724C737.394 884.557 736.75 887.059 735.455 889.228C734.193 891.398 732.464 893.085 730.266 894.29C728.103 895.462 725.671 896.051 722.971 896.057ZM722.956 889.957C724.223 889.955 725.406 889.652 726.504 889.049C727.636 888.413 728.534 887.478 729.198 886.243C729.861 885.008 730.191 883.507 730.187 881.741C730.181 879.107 729.476 877.092 728.073 875.695C726.703 874.265 725.018 873.553 723.018 873.557C721.018 873.562 719.336 874.283 717.973 875.719C716.643 877.122 715.981 879.14 715.987 881.774C715.993 884.407 716.648 886.439 717.951 887.869C719.288 889.266 720.956 889.962 722.956 889.957ZM749.499 872.145C750.396 870.677 751.56 869.524 752.991 868.687C754.456 867.85 756.122 867.43 757.988 867.425L758.006 874.775L756.156 874.78C753.956 874.785 752.29 875.305 751.159 876.341C750.062 877.377 749.516 879.179 749.522 881.745L749.554 895.545L742.554 895.562L742.489 867.862L749.489 867.845L749.499 872.145ZM797.103 867.334C800.503 867.326 803.239 868.37 805.311 870.465C807.415 872.526 808.472 875.424 808.481 879.157L808.519 895.407L801.519 895.424L801.483 880.124C801.478 877.957 800.924 876.308 799.822 875.178C798.719 874.013 797.217 873.434 795.317 873.438C793.417 873.443 791.902 874.029 790.772 875.199C789.674 876.335 789.128 877.986 789.133 880.153L789.169 895.453L782.169 895.469L782.133 880.169C782.128 878.002 781.574 876.354 780.472 875.223C779.369 874.059 777.868 873.479 775.968 873.483C774.034 873.488 772.502 874.075 771.372 875.244C770.274 876.38 769.728 878.031 769.733 880.198L769.769 895.498L762.769 895.514L762.704 867.814L769.704 867.798L769.712 871.148C770.609 869.979 771.757 869.06 773.156 868.39C774.587 867.72 776.153 867.383 777.853 867.379C780.02 867.374 781.954 867.836 783.657 868.765C785.359 869.661 786.678 870.958 787.616 872.656C788.512 871.054 789.809 869.768 791.507 868.797C793.238 867.826 795.103 867.339 797.103 867.334ZM818.262 895.734C816.996 895.737 815.945 895.357 815.11 894.592C814.308 893.794 813.905 892.811 813.903 891.645C813.9 890.478 814.298 889.51 815.096 888.742C815.927 887.94 816.976 887.537 818.243 887.534C819.476 887.532 820.494 887.929 821.296 888.727C822.098 889.492 822.5 890.458 822.503 891.625C822.505 892.791 822.108 893.775 821.31 894.577C820.511 895.346 819.496 895.732 818.262 895.734Z" fill="#39321E"/>
</svg>
